<svg xmlns="http://www.w3.org/2000/svg" xmlns:xlink="http://www.w3.org/1999/xlink" width="170" height="53" viewBox="0 0 170 53">
  <defs>
    <clipPath id="clip-path">
      <rect id="Rectangle_28" data-name="Rectangle 28" width="54.443" height="50" fill="none"/>
    </clipPath>
  </defs>
  <g id="Group_270" data-name="Group 270" transform="translate(-140 -22)">
    <text id="CREATION_BOIS" data-name="CREATION
BOIS" transform="translate(204 47)" fill="#341e13" fontSize="23" fontFamily="SegoeUI, Segoe UI"><tspan x="0" y="0">CREATION</tspan><tspan x="0" y="21">BOIS</tspan></text>
    <g id="Group_26" data-name="Group 26" transform="translate(140 25)" clip-path="url(#clip-path)">
      <path id="Path_45" data-name="Path 45" d="M98.885,43.31a16.943,16.943,0,0,0-5.37,1.027,32.293,32.293,0,0,0-7.6,4.238,2.217,2.217,0,0,0,.725.123h17.808a2.3,2.3,0,0,0,1.624-3.921l-.886-.886a23.731,23.731,0,0,0-6.3-.58" transform="translate(-52.302 -26.359)" fill="#405b3c"/>
      <path id="Path_46" data-name="Path 46" d="M88.94,13.781a41.789,41.789,0,0,0-6.872,2.994v5.079a41.289,41.289,0,0,1,4.941-2.45,28.1,28.1,0,0,1,7.667-1.931l-4.154-4.154c-.53.14-1.057.291-1.582.462" transform="translate(-49.963 -8.109)" fill="#405b3c"/>
      <path id="Path_47" data-name="Path 47" d="M89.364,4.054,85.989.678A2.3,2.3,0,0,0,82.068,2.3V7.036A43.112,43.112,0,0,1,87.095,4.8q1.127-.414,2.27-.745" transform="translate(-49.963 0)" fill="#405b3c"/>
      <path id="Path_48" data-name="Path 48" d="M86.753,29.624a42.9,42.9,0,0,0-4.685,2.447v4.708a2.214,2.214,0,0,0,.331,1.164q1.076-.762,2.181-1.482a30.042,30.042,0,0,1,6.366-3.251,21.362,21.362,0,0,1,9.142-.918c.322.029.64.069.956.112l-5.022-5.021c-.189.01-.378.02-.566.033a26.111,26.111,0,0,0-8.7,2.208" transform="translate(-49.963 -16.671)" fill="#405b3c"/>
      <path id="Path_49" data-name="Path 49" d="M56.709,4.419V2.3A2.3,2.3,0,0,0,52.788.679L49,4.467a17,17,0,0,0,1.772.6,7.871,7.871,0,0,0,5.937-.649" transform="translate(-29.831 -0.001)" fill="#a24632"/>
      <path id="Path_50" data-name="Path 50" d="M32.2,59.772a41.9,41.9,0,0,0-2.781,7.107l3.594,3.594a41.62,41.62,0,0,1,1.8-5.359,28.529,28.529,0,0,1,8.231-11q.851-.706,1.747-1.332V47.8a26.9,26.9,0,0,0-6.718,4.3A24.774,24.774,0,0,0,32.2,59.772" transform="translate(-17.91 -29.103)" fill="#a24632"/>
      <path id="Path_51" data-name="Path 51" d="M29.756,35.3c1.717-.1,3.422-.269,5.113-.524V30.3a28.406,28.406,0,0,1-7.844.4c-2.37-.163-4.717-.506-7.056-.9l-6.843,6.843c1.221-.244,2.453-.432,3.695-.576,4.3-.5,8.623-.517,12.935-.761" transform="translate(-7.991 -18.14)" fill="#a24632"/>
      <path id="Path_52" data-name="Path 52" d="M47.476,19.344V14.66a9.085,9.085,0,0,1-6.314.431,20.671,20.671,0,0,1-2.487-.885l-4.841,4.841a56.651,56.651,0,0,0,7.609.814,23.646,23.646,0,0,0,6.033-.518" transform="translate(-20.598 -8.649)" fill="#a24632"/>
      <path id="Path_53" data-name="Path 53" d="M55.873,100.6c-.034.227-.064.423-.093.606l1.136,1.136a2.3,2.3,0,0,0,3.921-1.624V87.253a17.005,17.005,0,0,0-2.307,3.655,34.874,34.874,0,0,0-2.657,9.694" transform="translate(-33.959 -53.119)" fill="#a24632"/>
      <path id="Path_54" data-name="Path 54" d="M47.811,69.239a26.107,26.107,0,0,0-4.593,7.716A43.343,43.343,0,0,0,41.6,82.134l4.331,4.331q.255-1.575.583-3.138a30,30,0,0,1,2.2-6.8A18.945,18.945,0,0,1,52.2,71.589V65.032a31.143,31.143,0,0,0-4.393,4.207" transform="translate(-25.326 -39.591)" fill="#a24632"/>
      <path id="Path_55" data-name="Path 55" d="M17.594,52.242a25.864,25.864,0,0,1,5.913-4.655c.14-.08.356-.107.381-.334-.134-.124-.285-.054-.425-.046-.866.051-1.731.113-2.6.162-3.676.208-7.362.245-11.029.618A37.96,37.96,0,0,0,3.2,49.158L.93,51.428A3.176,3.176,0,0,0,.245,54.9a47.308,47.308,0,0,1,5.78-2.037,40.6,40.6,0,0,1,6.7-1.277.747.747,0,0,1,.844.349.787.787,0,0,1-.132.912,35.87,35.87,0,0,0-3.152,4.9c-.9,1.629-1.716,3.3-2.561,4.963l2.634,2.635a43.236,43.236,0,0,1,2.014-5.265,28.557,28.557,0,0,1,5.227-7.837" transform="translate(0 -28.723)" fill="#a24632"/>
      <path id="Path_56" data-name="Path 56" d="M13.141,63.272c-.105-.156-.3-.054-.458-.029A44.842,44.842,0,0,0,3.05,65.929l1.927,1.927c.372-.129.748-.253,1.131-.363a.769.769,0,0,1,.93.225.783.783,0,0,1-.057.96l-.475.708,2.056,2.056a82.176,82.176,0,0,1,4.4-7.752c.084-.123.29-.247.174-.418" transform="translate(-1.857 -38.468)" fill="#a24632"/>
      <path id="Path_57" data-name="Path 57" d="M83.874,100.5c-.593-.273-1.2-.509-1.806-.719v8.666a2.3,2.3,0,0,0,3.921,1.624l4.545-4.545-.041-.045a21.636,21.636,0,0,0-6.618-4.98" transform="translate(-49.963 -60.743)" fill="#533c29"/>
      <path id="Path_58" data-name="Path 58" d="M86.241,84.79a34.559,34.559,0,0,0-4.173-1.34v4.86a20.424,20.424,0,0,1,6.859,3.781,28.158,28.158,0,0,1,2.62,2.478l3.416-3.416a24.207,24.207,0,0,0-8.721-6.363" transform="translate(-49.963 -50.804)" fill="#533c29"/>
      <path id="Path_59" data-name="Path 59" d="M111.221,77.931l3.3-3.3a2.3,2.3,0,0,0-1.624-3.921H99.8a35.159,35.159,0,0,1,5.8,2.855,25.747,25.747,0,0,1,5.626,4.364" transform="translate(-60.755 -43.049)" fill="#533c29"/>
      <path id="Path_60" data-name="Path 60" d="M98.15,77.707a36.4,36.4,0,0,0-11.043-6.352,19.674,19.674,0,0,0-2.1-.643H84.3a2.229,2.229,0,0,0-2.229,2.229V74.2a34.934,34.934,0,0,1,4.96,1.615A24.193,24.193,0,0,1,93,79.524a30.445,30.445,0,0,1,2.984,2.849l3.451-3.451c-.414-.418-.839-.827-1.289-1.215" transform="translate(-49.963 -43.049)" fill="#533c29"/>
    </g>
  </g>
</svg>
