<svg xmlns="http://www.w3.org/2000/svg" xmlns:xlink="http://www.w3.org/1999/xlink" width="180" height="366.947" viewBox="0 0 180 366.947">
  <defs>
    <clipPath id="clip-path">
      <rect id="Rectangle_115" data-name="Rectangle 115" width="80.001" height="50" rx="8" fill="#fff"/>
    </clipPath>
    <clipPath id="clip-path-2">
      <rect id="Rectangle_117" data-name="Rectangle 117" width="80.001" height="50" rx="8" fill="none"/>
    </clipPath>
    <clipPath id="clip-path-3">
      <rect id="Rectangle_119" data-name="Rectangle 119" width="80" height="50" rx="8" fill="none"/>
    </clipPath>
    <clipPath id="clip-path-4">
      <rect id="Rectangle_121" data-name="Rectangle 121" width="80.001" height="50" fill="none"/>
    </clipPath>
    <clipPath id="clip-path-5">
      <rect id="Rectangle_123" data-name="Rectangle 123" width="176.401" height="24.947" transform="translate(0 0)" fill="#503d2c"/>
    </clipPath>
  </defs>
  <g id="PD" transform="translate(-980 -2447)">
    <g id="Payments" transform="translate(67 -92)">
      <g id="visa" transform="translate(913 2602)">
        <g id="Group_196" data-name="Group 196" transform="translate(0 0)" clip-path="url(#clip-path)">
          <path id="Rectangle_114" data-name="Rectangle 114" d="M4.18,0H75.82A4.181,4.181,0,0,1,80,4.181V45.819A4.181,4.181,0,0,1,75.82,50H4.18A4.18,4.18,0,0,1,0,45.82V4.18A4.18,4.18,0,0,1,4.18,0Z" transform="translate(0 0)" fill="#fff"/>
          <path id="Path_70" data-name="Path 70" d="M55.5,42.448H51.6l2.442-15.011h3.909Z" transform="translate(-18.687 -9.937)" fill="#503d2c"/>
          <path id="Path_71" data-name="Path 71" d="M38.735,27.437,35.009,37.761l-.441-2.223h0l-1.315-6.751A1.672,1.672,0,0,0,31.4,27.437H25.24l-.072.254a14.592,14.592,0,0,1,4.089,1.716l3.394,13.041h4.072l6.218-15.011Z" transform="translate(-9.116 -9.937)" fill="#503d2c"/>
          <path id="Path_72" data-name="Path 72" d="M88.778,42.448h3.588l-3.128-15.01H86.1a1.8,1.8,0,0,0-1.805,1.118L78.463,42.448h4.074l.814-2.229h4.968Zm-4.3-5.309,2.053-5.618,1.156,5.618Z" transform="translate(-28.418 -9.938)" fill="#503d2c"/>
          <path id="Path_73" data-name="Path 73" d="M72.624,30.895l.557-3.224a11.285,11.285,0,0,0-3.514-.654c-1.94,0-6.545.848-6.545,4.969,0,3.879,5.406,3.927,5.406,5.963s-4.849,1.672-6.45.388l-.581,3.37a10.946,10.946,0,0,0,4.412.848c2.666,0,6.691-1.382,6.691-5.139,0-3.9-5.454-4.267-5.454-5.963s3.806-1.48,5.478-.558" transform="translate(-22.273 -9.785)" fill="#503d2c"/>
          <path id="Path_74" data-name="Path 74" d="M34.568,35.539l-1.315-6.75A1.672,1.672,0,0,0,31.4,27.437H25.24l-.071.254a15.146,15.146,0,0,1,5.8,2.912,11.7,11.7,0,0,1,3.6,4.936" transform="translate(-9.116 -9.937)" fill="#a24632"/>
        </g>
      </g>
      <g id="mc" transform="translate(1012.559 2602)">
        <g id="Group_198" data-name="Group 198" transform="translate(0 0)">
          <g id="Group_197" data-name="Group 197" transform="translate(0 0)" clip-path="url(#clip-path-2)">
            <rect id="Rectangle_116" data-name="Rectangle 116" width="80.001" height="50" rx="4.181" transform="translate(0 0)" fill="#fff"/>
            <path id="Path_75" data-name="Path 75" d="M69.633,45.4l.74-.019.732-.053.717-.091.711-.127.692-.159.684-.194.668-.228.654-.256.638-.29.62-.314.6-.35.586-.372.562-.4.541-.427.523-.45.5-.479.479-.5.45-.524.427-.542.4-.562.373-.586.348-.6.314-.62.291-.638.256-.654.227-.668.2-.682.159-.693.126-.711.092-.717.054-.731.019-.741-.019-.736-.054-.726-.092-.716-.126-.7-.159-.692-.2-.678L83.14,26.1l-.256-.649-.291-.634-.314-.621-.348-.6-.373-.586-.4-.562-.427-.537-.45-.522-.479-.5-.5-.475-.523-.45-.541-.426-.562-.4-.586-.373-.6-.343-.62-.314-.638-.291-.654-.256-.668-.227-.684-.194-.692-.159-.711-.126-.717-.092-.732-.054-.74-.019-.737.019-.731.054-.716.092-.708.126-.692.159-.682.194-.664.227-.654.256-.635.291-.614.314-.6.343-.581.373-.561.4-.543.426-.518.45-.5.475-.474.5-.45.522-.426.537-.4.562-.373.586-.344.6-.319.621-.286.634-.257.649-.222.668-.194.678-.159.692-.126.7-.091.716-.054.726-.019.736.019.741.054.731.091.717.126.711.159.693.194.682.222.668.257.654.286.638.319.62.344.6.373.586.4.562.426.542.45.524.474.5.5.479.518.45.543.427.561.4.581.372.6.35.614.314.635.29.654.256.664.228.682.194.692.159.708.127.716.091.731.053Z" transform="translate(-20.031 -6.047)" fill="#503d2c" fill-rule="evenodd"/>
            <path id="Path_76" data-name="Path 76" d="M39.5,45.4l.735-.019.732-.053.717-.091.707-.127.693-.159.682-.194.664-.228.653-.256.635-.29.615-.314.6-.35.58-.372.563-.4.542-.427.517-.45.5-.479.475-.5.45-.524.425-.542.4-.562.374-.586.344-.6.319-.62.286-.638.257-.654.222-.668.194-.682.16-.693.126-.711.092-.717.052-.731.02-.741-.02-.736-.052-.726-.092-.716-.126-.7-.16-.692-.194-.678-.222-.668-.257-.649-.286-.634L52.1,24.2l-.344-.6-.374-.586-.4-.562-.425-.537-.45-.522-.475-.5-.5-.475-.517-.45-.542-.426-.563-.4-.58-.373-.6-.343-.615-.314-.635-.291-.653-.256-.664-.227-.682-.194-.693-.159-.707-.126-.717-.092-.732-.054-.735-.019-.742.019-.73.054-.717.092-.712.126-.693.159-.682.194-.668.227-.653.256-.639.291-.621.314-.6.343-.586.373-.562.4-.542.426-.523.45-.5.475-.48.5-.45.522-.426.537-.4.562L27.2,23.6l-.349.6-.314.621-.291.634-.256.649-.227.668-.194.678-.159.692-.126.7-.092.716-.053.726-.019.736.019.741.053.731.092.717.126.711.159.693.194.682.227.668.256.654.291.638.314.62.349.6.372.586.4.562.426.542.45.524.48.5.5.479.523.45.542.427.562.4.586.372.6.35.621.314.639.29.653.256.668.228.682.194.693.159.712.127.717.091.73.053Z" transform="translate(-9.097 -6.047)" fill="#a24632" fill-rule="evenodd"/>
            <path id="Path_77" data-name="Path 77" d="M60.082,24.883h7.625V24.1H60.74Z" transform="translate(-21.761 -8.73)" fill="#503d2c" fill-rule="evenodd"/>
            <path id="Path_78" data-name="Path 78" d="M58.289,27.6h8.768v-.78H58.749Z" transform="translate(-21.112 -9.714)" fill="#503d2c" fill-rule="evenodd"/>
            <path id="Path_79" data-name="Path 79" d="M56.954,30.31h9.62v-.78H57.293Z" transform="translate(-20.628 -10.695)" fill="#503d2c" fill-rule="evenodd"/>
            <path id="Path_80" data-name="Path 80" d="M56.035,33.028H66.241v-.779H56.277Z" transform="translate(-20.295 -11.68)" fill="#503d2c" fill-rule="evenodd"/>
            <path id="Path_81" data-name="Path 81" d="M56.429,46.16H66.32v-.779H56.187Z" transform="translate(-20.35 -16.436)" fill="#503d2c" fill-rule="evenodd"/>
            <path id="Path_82" data-name="Path 82" d="M57.506,48.877h9.16V48.1H57.143Z" transform="translate(-20.697 -17.421)" fill="#503d2c" fill-rule="evenodd"/>
            <path id="Path_83" data-name="Path 83" d="M59.044,51.587h8.134v-.779H58.556Z" transform="translate(-21.208 -18.402)" fill="#503d2c" fill-rule="evenodd"/>
            <path id="Path_84" data-name="Path 84" d="M61.151,54.3h6.72v-.785h-7.4Z" transform="translate(-21.901 -19.383)" fill="#503d2c" fill-rule="evenodd"/>
            <path id="Path_85" data-name="Path 85" d="M55.5,35.738H66.046v-.779h-10.4Z" transform="translate(-20.1 -12.662)" fill="#503d2c" fill-rule="evenodd"/>
            <path id="Path_86" data-name="Path 86" d="M65.576,43.45H69.6v-.78H65.722Z" transform="translate(-23.751 -15.455)" fill="#503d2c" fill-rule="evenodd"/>
            <path id="Path_87" data-name="Path 87" d="M66.078,40.737h3.7v-.784H66.224Z" transform="translate(-23.933 -14.471)" fill="#503d2c" fill-rule="evenodd"/>
            <path id="Path_88" data-name="Path 88" d="M55.079,39.953h1.047v.784h-1Z" transform="translate(-19.949 -14.47)" fill="#503d2c" fill-rule="evenodd"/>
            <path id="Path_89" data-name="Path 89" d="M49.71,37.779l-.067,0-.068-.01-.064-.01-.062-.01-.059-.01-.063-.01-.062-.009-.069-.01-.068-.009-.077-.006-.087-.005-.092,0h-.1l-.111,0-.126.011-.14.009-.1.015-.092.015-.083.029-.073.029-.068.034-.063.038-.049.049-.044.043-.029.053-.024.054-.01.058v.058l.015.063.019.063.038.063.049.063.1.091.117.073.135.063.145.053.154.049.159.053.16.059.155.063.145.082.135.1.121.122.1.15.078.184.049.218.018.262-.018.3-.034.228-.058.2-.078.184-.1.159-.111.142-.127.121L49,41.5l-.149.092-.156.072-.159.063-.165.048-.169.039-.165.03-.159.014-.159.01-.151,0h-.209l-.193,0h-.17l-.159,0-.145-.005-.13-.01-.116-.01-.112-.015-.1-.01-.092-.019-.092-.015-.082-.024-.083-.019-.077-.03-.078-.028-.082-.029.217-1.07.044.01.052.015.068.018.083.02.087.019.1.019.107.024.115.02.122.019.126.02.131.014.136.015.14,0,.142.005h.139l.141-.005.14-.028.112-.04.087-.052L48,40.607l.048-.068.039-.078.024-.077.019-.073.01-.141-.044-.121-.083-.1-.121-.082-.145-.072-.17-.073-.189-.068-.188-.077L47,39.493l-.184-.1-.17-.126-.156-.151-.121-.184-.087-.218-.044-.26.005-.31.024-.189.035-.179.048-.165.057-.154.078-.145.087-.126.1-.121.121-.106.142-.092.154-.078.174-.072.194-.054.218-.044.237-.034.261-.019.286-.006h.179l.165.006.151.005.135,0,.121.01.111.01.1.01.087.01.083.01.068.014.062.01.059.01.048.009.043.006.043.01.039.005Z" transform="translate(-16.531 -13.241)" fill="#fff" fill-rule="evenodd"/>
            <path id="Path_90" data-name="Path 90" d="M49.71,37.779h0l-.067,0-.068-.01-.064-.01-.062-.01-.059-.01-.063-.01-.062-.009-.069-.01-.068-.009-.077-.006-.087-.005-.092,0h-.1l-.111,0-.126.011-.14.009-.1.015-.092.015-.083.029-.073.029-.068.034-.063.038-.049.049-.044.043-.029.053-.024.054-.01.058v.058l.015.063.019.063.038.063.049.063.1.091.117.073.135.063.145.053.154.049.159.053.16.059.155.063.145.082.135.1.121.122.1.15.078.184.049.218.018.262-.018.3-.034.228-.058.2-.078.184-.1.159-.111.142-.127.121L49,41.5l-.149.092-.156.072-.159.063-.165.048-.169.039-.165.03-.159.014-.159.01-.151,0h-.209l-.193,0h-.17l-.159,0-.145-.005-.13-.01-.116-.01-.112-.015-.1-.01-.092-.019-.092-.015-.082-.024-.083-.019-.077-.03-.078-.028-.082-.029.217-1.07.044.01.052.015.068.018.083.02.087.019.1.019.107.024.115.02.122.019.126.02.131.014.136.015.14,0,.142.005h.139l.141-.005.14-.028.112-.04.087-.052L48,40.607l.048-.068.039-.078.024-.077.019-.073.01-.141-.044-.121-.083-.1-.121-.082-.145-.072-.17-.073-.189-.068-.188-.077L47,39.493l-.184-.1-.17-.126-.156-.151-.121-.184-.087-.218-.044-.26.005-.31.024-.189.035-.179.048-.165.057-.154.078-.145.087-.126.1-.121.121-.106.142-.092.154-.078.174-.072.194-.054.218-.044.237-.034.261-.019.286-.006h.179l.165.006.151.005.135,0,.121.01.111.01.1.01.087.01.083.01.068.014.062.01.059.01.048.009.043.006.043.01.039.005-.247,1.093" transform="translate(-16.531 -13.241)" fill="none" stroke="#fff" stroke-miterlimit="2.613" strokeWidth="0.216"/>
            <path id="Path_91" data-name="Path 91" d="M53.277,34.883h1.342l-.2,1.172h.809l-.175,1.094-.853-.024-.464,2.7-.005.1.024.083.049.063.063.053.087.034.1.029.106.019.117.01.106,0,.1-.01.088-.015.077-.019.063-.02.043-.014.029-.01.009,0-.168.9-.034.024-.034.019-.034.019-.033.019-.034.015-.039.015-.043.014-.043.015-.048.014-.049.01-.057.01-.057.01-.063.01-.073.01-.078.01-.082.01h-.368l-.194-.015-.169-.019-.154-.029-.131-.034-.112-.044-.091-.047-.082-.059-.063-.063-.048-.068-.034-.082-.024-.083-.015-.091,0-.1V40.4l.014-.112.015-.121Z" transform="translate(-18.951 -12.634)" fill="#fff" fill-rule="evenodd"/>
            <path id="Path_92" data-name="Path 92" d="M53.277,34.883h1.342l-.2,1.172h.809l-.175,1.094-.853-.024-.464,2.7-.005.1.024.083.049.063.063.053.087.034.1.029.106.019.117.01.106,0,.1-.01.088-.015.077-.019.063-.02.043-.014.029-.01.009,0-.168.9-.034.024-.034.019-.034.019-.033.019-.034.015-.039.015-.043.014-.043.015-.048.014-.049.01-.057.01-.057.01-.063.01-.073.01-.078.01-.082.01h-.368l-.194-.015-.169-.019-.154-.029-.131-.034-.112-.044-.091-.047-.082-.059-.063-.063-.048-.068-.034-.082-.024-.083-.015-.091,0-.1V40.4l.014-.112.015-.121.924-5.282" transform="translate(-18.951 -12.634)" fill="none" stroke="#fff" stroke-miterlimit="2.613" strokeWidth="0.216"/>
            <path id="Path_93" data-name="Path 93" d="M57.753,39.581h0l-.015.082,0,.087.009.092.02.092.034.092.04.088.052.091.058.082.068.083.072.073.078.071.087.058.087.054.1.043.1.034.1.02.125.018.122.015.126.014.126.01.126,0h.131l.126,0,.131-.01.131-.019.131-.025.136-.029.13-.043L60.3,40.6l.14-.059.136-.077.14-.083-.193,1.191-.078.038-.077.04-.078.028-.071.03-.073.024-.078.025-.077.018-.082.015-.087.015-.1.01-.1.009-.112.01-.126.006h-.13l-.151,0h-.16l-.237,0-.241-.024-.243-.034-.242-.059-.237-.071-.227-.093L57.3,41.44l-.2-.141-.189-.164-.165-.2-.14-.223-.117-.256-.082-.286-.053-.325-.015-.358.025-.4.019-.155.028-.179.04-.188.053-.2.073-.207.087-.209.111-.213.136-.2.154-.195.189-.184.214-.165.242-.145.281-.122.315-.087.348-.058.393-.02.189.005.2.019.2.034.2.048.193.073.189.087.175.116.159.135.145.165.121.194.1.223.068.257.039.289.005.329-.034.369-.073.407-.024.3H57.361l.222-.954H59.7l.01-.121-.006-.116-.01-.107-.019-.1-.034-.092-.034-.083-.049-.073-.048-.068-.057-.057-.064-.049-.073-.043-.073-.039-.077-.028-.078-.02-.082-.015-.087-.01-.092.005-.087.015-.082.02-.082.029-.083.038-.071.044-.074.054-.062.057-.064.068-.058.073-.053.078-.044.083-.043.087-.034.1-.029.1-.019.1-.193,1" transform="translate(-20.405 -13.241)" fill="none" stroke="#fff" stroke-miterlimit="2.613" strokeWidth="0.216"/>
            <path id="Path_94" data-name="Path 94" d="M73.854,36.22l-.062-.034-.063-.029-.069-.034-.072-.034-.073-.028-.081-.029L73.351,36l-.086-.029-.092-.024-.093-.019-.1-.02-.1-.015-.112-.01-.111-.01H72.3l-.126.01-.131.015-.135.024-.136.038-.135.054-.136.068-.136.086-.13.107L71.1,36.4l-.121.155-.115.179-.107.213-.1.242-.092.272-.077.309-.031.173-.019.17-.01.17.006.165.013.164.034.155.044.145.053.145.073.131.087.125.1.112.116.1.131.087.149.072.165.063.184.043.063.014.073.015.087.01.1.01.106.01h.232l.122-.01.126-.015.126-.024.121-.034.121-.038.121-.054.112-.062.1-.077.1-.087-.217,1.293-.03.024-.029.029-.039.034-.043.027-.054.039-.068.034-.078.034L72.649,41l-.111.034-.126.024-.145.02-.17.019-.188.01-.219.005-.246-.005-.272-.015-.223-.024-.223-.048-.222-.072-.223-.1-.213-.115-.2-.146-.193-.169-.179-.193-.161-.218-.135-.242-.116-.271-.087-.3-.058-.324-.02-.344.01-.378.052-.4.04-.2.043-.194.049-.189.049-.179.052-.17.063-.169.064-.16.068-.15.073-.15.072-.141.082-.135.087-.126.087-.122.1-.115.1-.107.1-.1.111-.1.112-.092.117-.082L70.563,35l.13-.073.131-.062.136-.059.14-.054.151-.048.149-.038.156-.034.165-.028.164-.026.175-.018.174-.009.184-.006.156.006.149.009.145.015.145.019.136.019.131.029.126.024.116.029.112.029.1.029.092.029.077.029.068.024.058.02.043.019.029.01Z" transform="translate(-24.961 -12.51)" fill="#fff" fill-rule="evenodd"/>
            <path id="Path_95" data-name="Path 95" d="M73.854,36.22h0l-.062-.034-.063-.029-.069-.034-.072-.034-.073-.028-.081-.029L73.351,36l-.086-.029-.092-.024-.093-.019-.1-.02-.1-.015-.112-.01-.111-.01H72.3l-.126.01-.131.015-.135.024-.136.038-.135.054-.136.068-.136.086-.13.107L71.1,36.4l-.121.155-.115.179-.107.213-.1.242-.092.272-.077.309-.031.173-.019.17-.01.17.006.165.013.164.034.155.044.145.053.145.073.131.087.125.1.112.116.1.131.087.149.072.165.063.184.043.063.014.073.015.087.01.1.01.106.01h.232l.122-.01.126-.015.126-.024.121-.034.121-.038.121-.054.112-.062.1-.077.1-.087-.217,1.293-.03.024-.029.029-.039.034-.043.027-.054.039-.068.034-.078.034L72.649,41l-.111.034-.126.024-.145.02-.17.019-.188.01-.219.005-.246-.005-.272-.015-.223-.024-.223-.048-.222-.072-.223-.1-.213-.115-.2-.146-.193-.169-.179-.193-.161-.218-.135-.242-.116-.271-.087-.3-.058-.324-.02-.344.01-.378.052-.4.04-.2.043-.194.049-.189.049-.179.052-.17.063-.169.064-.16.068-.15.073-.15.072-.141.082-.135.087-.126.087-.122.1-.115.1-.107.1-.1.111-.1.112-.092.117-.082L70.563,35l.13-.073.131-.062.136-.059.14-.054.151-.048.149-.038.156-.034.165-.028.164-.026.175-.018.174-.009.184-.006.156.006.149.009.145.015.145.019.136.019.131.029.126.024.116.029.112.029.1.029.092.029.077.029.068.024.058.02.043.019.029.01-.243,1.341" transform="translate(-24.961 -12.51)" fill="none" stroke="#fff" stroke-miterlimit="2.613" strokeWidth="0.216"/>
            <path id="Path_96" data-name="Path 96" d="M92.829,41.253H91.488l.1-.537v-.048l-.078.1-.083.087-.082.077L91.256,41l-.087.063-.087.052-.087.044L90.9,41.2l-.092.034-.092.024-.092.024-.1.014-.1.015-.092.01-.1.005h-.1l-.252-.02-.232-.053-.213-.082-.195-.111-.174-.141-.155-.164-.136-.18-.116-.2-.1-.219-.078-.226-.054-.237-.039-.247L88.4,39.2l0-.251.024-.247.044-.247.073-.286.087-.271.1-.247.121-.232.126-.218L89.121,37l.149-.173.161-.16.17-.141.179-.121.184-.107.184-.082.193-.068.193-.043.193-.029.2-.01.141,0,.135.015.126.024.116.034.111.039.1.043.1.054.087.054.077.057.072.064.063.063.059.063.048.063.044.063.039.058.029.058.339-1.9h1.316Z" transform="translate(-32.016 -12.648)" fill="#fff" fill-rule="evenodd"/>
            <path id="Path_97" data-name="Path 97" d="M92.829,41.253H91.488l.1-.537v-.048l-.078.1-.083.087-.082.077L91.256,41l-.087.063-.087.052-.087.044L90.9,41.2l-.092.034-.092.024-.092.024-.1.014-.1.015-.092.01-.1.005h-.1l-.252-.02-.232-.053-.213-.082-.195-.111-.174-.141-.155-.164-.136-.18-.116-.2-.1-.219-.078-.226-.054-.237-.039-.247L88.4,39.2l0-.251.024-.247.044-.247.073-.286.087-.271.1-.247.121-.232.126-.218L89.121,37l.149-.173.161-.16.17-.141.179-.121.184-.107.184-.082.193-.068.193-.043.193-.029.2-.01.141,0,.135.015.126.024.116.034.111.039.1.043.1.054.087.054.077.057.072.064.063.063.059.063.048.063.044.063.039.058.029.058.339-1.9h1.316l-1.094,6.332" transform="translate(-32.016 -12.648)" fill="none" stroke="#fff" stroke-miterlimit="2.613" strokeWidth="0.216"/>
            <path id="Path_98" data-name="Path 98" d="M91.521,41.4l.135-.01.126-.029.117-.034.112-.053.1-.058.1-.073.092-.082.082-.088.072-.1.068-.107.063-.111.054-.115.048-.122.039-.126.033-.131.025-.131.024-.135.015-.14v-.131l0-.135-.015-.126-.019-.121-.034-.117-.039-.111-.048-.1-.058-.092-.062-.078-.073-.068-.082-.058-.087-.039-.092-.024-.1-.01-.132.01-.121.019-.112.039-.111.048-.1.063-.1.078-.082.082-.082.092-.072.106-.068.112-.064.115-.053.126-.048.13-.038.132-.039.139-.029.141-.026.214.011.232.033.237.064.228.1.2.126.159.159.107Z" transform="translate(-32.9 -13.962)" fill="#503d2c" fill-rule="evenodd"/>
            <path id="Path_99" data-name="Path 99" d="M42.79,40.793,42.6,41.868h-1.22l.034-.2.026-.179.018-.135.02-.073-.068.077-.078.078-.092.073-.1.067-.116.068L40.9,41.7l-.126.058-.131.048-.141.043-.139.034-.141.029-.145.019-.14.01-.14,0-.136-.014-.131-.019-.169-.044-.155-.048-.135-.063-.121-.073-.106-.077-.1-.088-.078-.092-.068-.1-.057-.1-.049-.107-.038-.106-.029-.107L38.4,40.8l-.015-.112-.01-.107v-.107l.014-.189.029-.179.049-.17.063-.165.077-.155.087-.14.1-.135.117-.121.121-.112.135-.1.141-.092.144-.078.155-.066.161-.054.164-.043.17-.029h.01l.024-.005.034,0,.052,0,.059-.01.068-.005.072-.01.083-.01.082-.01.083-.01.087-.006.077-.01.078,0,.072-.006.068,0h.165l.116,0,.106.006h.107l.087,0,.068.005.048,0h.015l.01-.034.029-.087.024-.1.01-.092-.02-.106-.043-.1-.059-.086-.078-.073-.091-.062-.1-.044-.116-.029-.126-.01-.135,0-.146-.005h-.15l-.154.005-.16.01-.156.014-.154.015-.15.02-.146.019-.14.024-.126.024-.115.024-.107.03-.088.029-.067.034-.054.029.344-1.167.107-.043.106-.039.117-.033.116-.025.117-.024.125-.019.126-.02.131-.01.135-.01.141-.005.145-.005h.465l.17.005.17.005.135.01.146.024.149.034.155.043.15.059.145.068.145.082.137.091.119.107.108.116.1.13.071.145.049.156.029.164v.184l-.029.194Z" transform="translate(-13.9 -13.263)" fill="#fff" fill-rule="evenodd"/>
            <path id="Path_100" data-name="Path 100" d="M42.79,40.793,42.6,41.868h-1.22l.034-.2.026-.179.018-.135.02-.073-.068.077-.078.078-.092.073-.1.067-.116.068L40.9,41.7l-.126.058-.131.048-.141.043-.139.034-.141.029-.145.019-.14.01-.14,0-.136-.014-.131-.019-.169-.044-.155-.048-.135-.063-.121-.073-.106-.077-.1-.088-.078-.092-.068-.1-.057-.1-.049-.107-.038-.106-.029-.107L38.4,40.8l-.015-.112-.01-.107v-.107l.014-.189.029-.179.049-.17.063-.165.077-.155.087-.14.1-.135.117-.121.121-.112.135-.1.141-.092.144-.078.155-.066.161-.054.164-.043.17-.029h.01l.024-.005.034,0,.052,0,.059-.01.068-.005.072-.01.083-.01.082-.01.083-.01.087-.006.077-.01.078,0,.072-.006.068,0h.165l.116,0,.106.006h.107l.087,0,.068.005.048,0h.015l.01-.034.029-.087.024-.1.01-.092-.02-.106-.043-.1-.059-.086-.078-.073-.091-.062-.1-.044-.116-.029-.126-.01-.135,0-.146-.005h-.15l-.154.005-.16.01-.156.014-.154.015-.15.02-.146.019-.14.024-.126.024-.115.024-.107.03-.088.029-.067.034-.054.029.344-1.167.107-.043.106-.039.117-.033.116-.025.117-.024.125-.019.126-.02.131-.01.135-.01.141-.005.145-.005h.465l.17.005.17.005.135.01.146.024.149.034.155.043.15.059.145.068.145.082.137.091.119.107.108.116.1.13.071.145.049.156.029.164v.184l-.029.194-.489,2.556" transform="translate(-13.9 -13.263)" fill="none" stroke="#fff" stroke-miterlimit="2.613" strokeWidth="0.216"/>
            <path id="Path_101" data-name="Path 101" d="M42.478,41.132l-.005-.024-.02-.024-.029-.015-.048-.009-.054-.01-.063-.006h-.146l-.077.006-.082.01-.078.009-.078.01-.073.01-.068.014-.058.015-.054.014-.033.01-.039.015-.054.019-.054.024-.063.029-.063.034-.068.033-.063.039-.068.048-.063.048-.059.058-.052.059-.049.062-.033.069-.029.077-.015.078,0,.165.024.131.049.1.063.073.073.048.083.029.078.015.077,0,.145,0,.131-.015.126-.02.112-.029.1-.034.092-.043.082-.043.073-.054.063-.048.057-.058.049-.053.039-.058.033-.059.031-.057.024-.054.013-.054.04-.14.034-.161.029-.154Z" transform="translate(-14.755 -14.866)" fill="#a24632" fill-rule="evenodd"/>
            <path id="Path_102" data-name="Path 102" d="M28.575,41.239H27.259l1.1-6.356h2.289l.219,3.771,1.583-3.771h2.392l-1.124,6.356H32.4l.832-4.749h-.052l-1.971,4.749H29.724l-.01-.2-.034-.528-.043-.749-.049-.863-.048-.866-.043-.76-.034-.552-.01-.233h-.072Z" transform="translate(-9.873 -12.634)" fill="#fff" fill-rule="evenodd"/>
            <path id="Path_103" data-name="Path 103" d="M28.575,41.239H27.259l1.1-6.356h2.289l.219,3.771,1.583-3.771h2.392l-1.124,6.356H32.4l.832-4.749h-.052l-1.971,4.749H29.724l-.01-.2-.034-.528-.043-.749-.049-.863-.048-.866-.043-.76-.034-.552-.01-.233h-.072l-.8,4.749" transform="translate(-9.873 -12.634)" fill="none" stroke="#fff" stroke-miterlimit="2.613" strokeWidth="0.216"/>
            <path id="Path_104" data-name="Path 104" d="M80.477,40.793l-.2,1.075H79.062l.01-.2.005-.174v-.131l.009-.057-.062.072-.073.073-.087.068-.1.068-.1.063-.117.058-.122.058-.121.048-.131.038-.136.039-.135.025-.135.019-.141.01-.135,0-.131-.014-.131-.019-.174-.044-.154-.048-.136-.063-.127-.073-.106-.077-.092-.088-.077-.092-.068-.1-.058-.1-.044-.107-.038-.106-.024-.107-.02-.111-.013-.112-.011-.107v-.107l.011-.189.029-.179.043-.17.063-.165.072-.155.092-.14.1-.135.112-.121.126-.112.13-.1.14-.092.151-.078.15-.066.159-.054.16-.043.165-.029h.01l.023-.005.034,0,.048,0,.063-.01.068-.005.073-.01.077-.01.083-.01.087-.01.082-.006.082-.01.078,0,.068-.006.068,0h.17l.117,0,.111.006h.107l.092,0,.077.005.043,0h.02l.01-.034.015-.087.014-.1.009-.092-.018-.106-.038-.1-.063-.086-.073-.073-.087-.062-.1-.044-.107-.029-.117-.01-.136,0-.145-.005h-.151l-.155.005-.159.01-.156.014-.155.015-.15.02-.145.019-.14.024-.126.024-.116.024-.107.03-.086.029-.069.034-.053.029.339-1.167.106-.043.112-.039.111-.033.115-.025.122-.024.121-.019.125-.02.131-.01.135-.01.14-.005.14-.005h.456l.164.005.165.005.136.01.145.024.15.034.155.043.151.059.149.068.145.082.135.091.122.107.111.116.1.13.073.145.053.156.034.164v.184l-.024.194Z" transform="translate(-27.558 -13.263)" fill="#fff" fill-rule="evenodd"/>
            <path id="Path_105" data-name="Path 105" d="M82.64,44.27l.028-.029.2-1.075-.058-.01-.2,1.075.029-.03v.068l.024-.005,0-.024Z" transform="translate(-29.921 -15.631)" fill="#fff" fill-rule="evenodd"/>
            <path id="Path_106" data-name="Path 106" d="M80.7,44.83l.029.034h1.216V44.8H80.732l.029.034H80.7l0,.034h.033Z" transform="translate(-29.228 -16.225)" fill="#fff" fill-rule="evenodd"/>
            <path id="Path_107" data-name="Path 107" d="M80.783,43.976l-.044-.038-.019.078-.006.131v.174l-.009.2h.059l.009-.2.01-.174-.005-.131v-.04l-.043-.038Z" transform="translate(-29.23 -15.914)" fill="#fff" fill-rule="evenodd"/>
            <path id="Path_108" data-name="Path 108" d="M77.874,44.6h0l.135.019.131.014.135,0,.142-.01.14-.019.135-.025.136-.038.135-.04.121-.048.126-.057.117-.058.1-.068.1-.069.086-.067.078-.078.063-.073-.048-.038-.063.073-.068.068-.087.068-.092.068-.1.058-.115.059-.117.058-.121.048-.126.039-.135.04-.136.024-.129.019-.142.011-.135,0-.131-.015-.125-.019Z" transform="translate(-28.205 -15.914)" fill="#fff" fill-rule="evenodd"/>
            <path id="Path_109" data-name="Path 109" d="M76.037,42.67h0l0,.107.01.107.015.117.019.111.024.107.039.112.043.111.063.1.067.1.078.092.1.092.112.078.126.078.141.063.159.048.175.044.01-.058-.175-.044-.15-.048-.131-.063-.126-.068-.1-.077-.087-.084-.078-.092-.068-.092-.053-.1-.043-.1-.04-.1-.024-.107-.019-.112-.015-.107-.01-.107.005-.107Z" transform="translate(-27.54 -15.455)" fill="#fff" fill-rule="evenodd"/>
            <path id="Path_110" data-name="Path 110" d="M77.775,39.755h0l-.169.029-.165.044-.16.053-.155.068-.151.077-.144.1-.132.1-.125.116-.116.121-.1.136-.1.145-.073.16-.062.164-.044.174-.029.184-.015.189H76.1l.005-.189.029-.173.043-.165.063-.165.072-.151.087-.136.1-.135.106-.121.126-.107.131-.1L77,40.085l.152-.078.144-.067.16-.053.155-.044.159-.029Z" transform="translate(-27.54 -14.399)" fill="#fff" fill-rule="evenodd"/>
            <path id="Path_111" data-name="Path 111" d="M79.759,39.6h-.053l-.068.01-.068.006-.077,0-.082.009-.082.006-.087.01-.083.009-.077.011-.073.01-.067,0-.063.01-.048,0-.039,0-.019.005h-.01v.058h.01l.029-.005.029,0,.048,0,.063-.01.067-.005.073-.01.077-.01.083-.009.087-.01.082,0,.082-.01.077,0,.068-.006h.121Z" transform="translate(-28.527 -14.341)" fill="#fff" fill-rule="evenodd"/>
            <path id="Path_112" data-name="Path 112" d="M80.979,39.649l.029-.024h-.02l-.043,0-.077-.005-.092-.009h-.217l-.117-.01h-.116v.068h.233l.111.01h.2l.077.005.043.005h.02l.029-.024-.029.024.024,0,0-.029Z" transform="translate(-29.093 -14.341)" fill="#fff" fill-rule="evenodd"/>
            <path id="Path_113" data-name="Path 113" d="M81.4,39.194h-.005l0,.092-.015.1-.015.087-.009.033.058.01.01-.034.014-.087.014-.106.015-.092H81.4Z" transform="translate(-29.464 -14.196)" fill="#fff" fill-rule="evenodd"/>
            <path id="Path_114" data-name="Path 114" d="M80.522,38.407v0l.112.005.1.029.1.043.082.058.068.068.058.082.04.087.019.1h.058l-.02-.11-.038-.107-.068-.092-.077-.078-.092-.067-.107-.044-.112-.028-.121-.015v.063Z" transform="translate(-29.164 -13.888)" fill="#fff" fill-rule="evenodd"/>
            <path id="Path_115" data-name="Path 115" d="M77.267,38.634l.048.029.048-.024.063-.034.083-.029.106-.028.117-.024.125-.025L78,38.474l.14-.018.151-.02.154-.015.156-.014.159-.01h.45l.136,0v-.058l-.136,0-.145-.01h-.15l-.156.01-.159.009-.156.015-.154.015-.151.019-.15.018-.141.025-.125.024-.117.024-.107.029-.092.03-.073.033-.057.034.048.029Z" transform="translate(-27.985 -13.882)" fill="#fff" fill-rule="evenodd"/>
            <path id="Path_116" data-name="Path 116" d="M77.626,36.939l-.02.025-.338,1.167.058.01.339-1.167-.02.025-.018-.059-.015.005-.006.02Z" transform="translate(-27.985 -13.379)" fill="#fff" fill-rule="evenodd"/>
            <path id="Path_117" data-name="Path 117" d="M79.983,36.582h0l-.165-.01-.165-.005H79.2l-.14.01-.14.005-.135.01-.131.008-.131.02-.12.019-.121.025-.117.024-.115.034-.111.038-.107.043.019.059.107-.043.111-.038.107-.035.117-.024.121-.025.12-.019.121-.019.131-.01.135-.01.14,0h.6l.165,0h.165Z" transform="translate(-28.189 -13.244)" fill="#fff" fill-rule="evenodd"/>
            <path id="Path_118" data-name="Path 118" d="M82.867,38.232h0l.024-.2v-.184l-.034-.17L82.8,37.52l-.077-.15-.1-.135-.115-.121-.121-.107-.14-.092-.145-.087-.155-.068L81.8,36.7l-.159-.043-.151-.034-.149-.024-.136-.01v.058l.136.01.14.024.15.034.149.043.151.058.145.068.145.077.131.092.121.107.107.112.1.125.068.142.054.149.034.159v.184l-.024.189Z" transform="translate(-29.412 -13.253)" fill="#fff" fill-rule="evenodd"/>
            <path id="Path_119" data-name="Path 119" d="M82.98,41.714h0l.508-2.556-.058-.01L82.922,41.7Z" transform="translate(-30.033 -14.179)" fill="#fff" fill-rule="evenodd"/>
            <path id="Path_120" data-name="Path 120" d="M80.16,41.13l-.01-.029-.019-.024-.034-.015-.048-.014L80,41.042l-.063-.005h-.073l-.072.005-.078.01-.077.01-.077.01-.073.01-.071.015-.064.009-.063.015-.048.01-.033.005-.039.015-.048.015-.054.019L79,41.211l-.057.03-.068.034-.062.043-.064.044-.063.053-.052.053-.054.063-.044.068-.034.073-.028.078-.015.082L78.451,42l.023.131.04.1.057.073.073.048.083.029.082.015.082,0,.145,0,.135-.015.126-.024.112-.034.106-.039.092-.043.087-.049.078-.057.068-.054.057-.063.054-.058L80,41.889l.033-.057.025-.059.019-.057.014-.054.02-.135.025-.14.019-.136Z" transform="translate(-28.414 -14.863)" fill="#503d2c" fill-rule="evenodd"/>
            <path id="Path_121" data-name="Path 121" d="M96.766,43.438l.011-.112.037-.131.068-.116.082-.1.1-.082.117-.058.126-.04.135-.014.137.014.126.04.116.058.1.082.082.1.068.116.038.131.01.112h-.145l0-.088-.03-.107-.048-.1-.063-.083L97.755,43l-.092-.048-.107-.034-.112-.01-.11.01-.107.034L97.135,43l-.078.068-.062.083-.048.1-.029.107-.01.088Z" transform="translate(-35.047 -15.496)" fill="#fff" fill-rule="evenodd"/>
            <path id="Path_122" data-name="Path 122" d="M97.45,43.645v-.291h.266l.059,0,.054.01.038.015.034.019.024.029.019.029.01.033,0,.034,0,.043-.01.034-.014.029-.01.01h-.2l.019-.006.034,0,.029-.01.025-.01.019-.015.01-.015.009-.023v-.034l-.005-.024-.01-.02-.013-.01-.015-.01-.024,0-.024,0h-.2v.189Z" transform="translate(-35.295 -15.702)" fill="#fff" fill-rule="evenodd"/>
            <path id="Path_123" data-name="Path 123" d="M96.764,43.81l0,.028.015.141.037.13.068.117.082.1.1.082.117.064.126.038.135.015.136-.015.126-.038.116-.064.1-.082.082-.1.068-.117.038-.13.014-.141,0-.028h-.145l.005.028-.01.117-.03.107-.048.092-.063.081-.077.068-.092.053-.107.034-.112.01-.11-.01-.107-.034-.092-.053-.078-.068-.062-.081-.048-.092-.029-.107-.01-.117V43.81Z" transform="translate(-35.045 -15.868)" fill="#fff" fill-rule="evenodd"/>
            <path id="Path_124" data-name="Path 124" d="M97.45,43.81V44.1h.121v-.242h.121l.145.242h.1l-.145-.242h.034l.033-.01.029-.01.025-.019.009-.014h-.2l-.024,0h-.121v0Z" transform="translate(-35.295 -15.868)" fill="#fff" fill-rule="evenodd"/>
            <path id="Path_125" data-name="Path 125" d="M96.761,43.467h0l.015-.141.037-.131.068-.116.082-.1.1-.082.117-.059.126-.04.135-.014.136.014.126.04.117.059.1.082.082.1.068.116.038.131.014.141-.014.14-.038.13-.068.117-.082.1-.1.082L97.7,44.1l-.126.038-.136.015-.135-.015-.126-.038-.117-.064-.1-.082-.082-.1-.068-.117-.037-.13-.015-.14m.561.267H97.2v-.586h.266l.059,0,.053.01.038.015.034.019.024.029.019.029.01.033.005.034-.005.043-.01.034-.014.029-.02.024-.024.019-.029.01-.033.01H97.54l.145.242h-.1l-.145-.242h-.121v.242m.121-.291h0l.043-.01.034,0,.029-.01.025-.01.019-.015.01-.015.01-.023v-.034l-.005-.024-.01-.02-.014-.009-.015-.01-.025,0-.024,0h-.2v.193h.121m0,.586h0l.112-.01.107-.034.092-.052.077-.069.063-.081.048-.092.03-.107.009-.116-.009-.116-.03-.107-.048-.1-.063-.083L97.753,43l-.092-.048-.107-.034-.112-.01-.111.01-.106.034L97.133,43l-.078.068-.063.083-.048.1-.029.107-.01.116.01.116.029.107.048.092.063.081.078.069.092.052.106.034.111.01" transform="translate(-35.046 -15.496)" fill="none" stroke="#fff" stroke-miterlimit="2.613" strokeWidth="0.216"/>
            <path id="Path_126" data-name="Path 126" d="M83.538,41.874H84.9l.489-2.755.019-.106.029-.107.029-.107.039-.107.048-.106.057-.1.063-.1.078-.092.087-.082.1-.078.112-.073.126-.057.14-.048.155-.039.169-.029.189-.01h.121l.218-1.244-.136.01-.131.015-.121.024-.116.034-.107.038-.1.05-.1.052-.092.058-.086.068-.083.068-.077.078-.077.077-.073.082-.072.092-.073.087-.067.1.145-.876H84.442Z" transform="translate(-30.256 -13.269)" fill="#fff" fill-rule="evenodd"/>
            <path id="Path_127" data-name="Path 127" d="M83.538,41.874H84.9l.489-2.755.019-.106.029-.107.029-.107.039-.107.048-.106.057-.1.063-.1.078-.092.087-.082.1-.078.112-.073.126-.057.14-.048.155-.039.169-.029.189-.01h.121l.218-1.244-.136.01-.131.015-.121.024-.116.034-.107.038-.1.05-.1.052-.092.058-.086.068-.083.068-.077.078-.077.077-.073.082-.072.092-.073.087-.067.1.145-.876H84.442l-.9,5.185" transform="translate(-30.256 -13.269)" fill="none" stroke="#fff" stroke-miterlimit="2.613" strokeWidth="0.216"/>
            <path id="Path_128" data-name="Path 128" d="M63.437,41.874h1.389l.465-2.755.02-.106.024-.1.024-.1.034-.1.038-.1.049-.092.057-.087.068-.082.077-.073.087-.072.107-.058.115-.053.136-.045.151-.038.165-.025.188-.014h.015l.019,0,.024.005h.024l.024,0,.02.005.013.005h.005l.005-.02.015-.058.019-.087.024-.107.034-.126.034-.136.044-.135.043-.136.04-.092.048-.092.048-.091.048-.082.043-.072.034-.059.024-.034.01-.014h0l-.02-.006-.024,0-.034-.005h-.034l-.039,0-.034-.005h-.034l-.15.01-.135.015-.126.024-.115.029-.112.038-.1.049-.092.048-.087.057-.082.064-.078.073-.073.073-.073.082-.073.083-.068.092-.072.1-.073.1.174-.876H64.342Z" transform="translate(-22.976 -13.269)" fill="#fff" fill-rule="evenodd"/>
            <path id="Path_129" data-name="Path 129" d="M63.437,41.874h1.389l.465-2.755.02-.106.024-.1.024-.1.034-.1.038-.1.049-.092.057-.087.068-.082.077-.073.087-.072.107-.058.115-.053.136-.045.151-.038.165-.025.188-.014h.015l.019,0,.024.005h.024l.024,0,.02.005.013.005h.005l.005-.02.015-.058.019-.087.024-.107.034-.126.034-.136.044-.135.043-.136.04-.092.048-.092.048-.091.048-.082.043-.072.034-.059.024-.034.01-.014h0l-.02-.006-.024,0-.034-.005h-.034l-.039,0-.034-.005h-.034l-.15.01-.135.015-.126.024-.115.029-.112.038-.1.049-.092.048-.087.057-.082.064-.078.073-.073.073-.073.082-.073.083-.068.092-.072.1-.073.1.174-.876H64.342l-.905,5.185" transform="translate(-22.976 -13.269)" fill="none" stroke="#fff" stroke-miterlimit="2.613" strokeWidth="0.216"/>
            <path id="Path_130" data-name="Path 130" d="M96.784,52.529v-.02l.037-.126.068-.111.082-.1.1-.077.117-.059.126-.033.135-.015.136.015.126.033.117.059.1.077.082.1.068.111.038.126v.02h-.14l-.03-.1-.048-.092-.063-.083-.077-.068-.092-.054-.107-.033-.112-.01-.111.01-.106.033-.092.054-.078.068L97,52.336l-.048.092-.029.1Z" transform="translate(-35.054 -18.831)" fill="#503d2c" fill-rule="evenodd"/>
            <path id="Path_131" data-name="Path 131" d="M97.45,52.739v-.169h.325l.054.01.038.009.034.019.024.025.019.029.01.034,0,.043h-.1v-.024l-.005-.024-.01-.019-.013-.01-.015-.01-.024-.005-.024,0h-.2v.1Z" transform="translate(-35.295 -19.04)" fill="#503d2c" fill-rule="evenodd"/>
            <path id="Path_132" data-name="Path 132" d="M96.76,52.941l.015-.107h.14v0l-.01.1Z" transform="translate(-35.045 -19.136)" fill="#503d2c" fill-rule="evenodd"/>
            <path id="Path_133" data-name="Path 133" d="M97.45,52.941v-.107h.121v.1h.121l.043-.009.034-.005.029-.01.025-.01.019-.014.01-.015.009-.023v-.011h.1l0,.034-.01.029-.014.025-.019.018Z" transform="translate(-35.295 -19.136)" fill="#503d2c" fill-rule="evenodd"/>
            <path id="Path_134" data-name="Path 134" d="M98.667,52.941l-.01-.1v0h.14l.014.107Z" transform="translate(-35.733 -19.136)" fill="#503d2c" fill-rule="evenodd"/>
            <path id="Path_135" data-name="Path 135" d="M96.76,53v.015l.015.14.038.131.068.116.082.1.1.082.117.057.126.04.135.014.136-.014.125-.04.117-.057.1-.082L98,53.4l.068-.116.038-.131.014-.14V53H97.98v.015l-.01.117-.03.107-.048.091-.063.082-.077.069-.092.053-.107.034-.112.01-.11-.01-.107-.034-.092-.053-.078-.069-.063-.082-.048-.091-.029-.107-.01-.117V53Z" transform="translate(-35.045 -19.196)" fill="#503d2c" fill-rule="evenodd"/>
            <path id="Path_136" data-name="Path 136" d="M97.45,53v.281h.121V53.04h.121l.145.242h.1l-.145-.242h.034l.033-.01.029-.01.025-.02Z" transform="translate(-35.295 -19.196)" fill="#503d2c" fill-rule="evenodd"/>
            <path id="Path_137" data-name="Path 137" d="M61.016,38.2l-.039-.289-.068-.257-.1-.223-.122-.194-.145-.165-.159-.135-.174-.116-.189-.087-.193-.073-.2-.048-.2-.034-.2-.019-.189-.005-.393.02-.348.058-.316.087-.28.122-.242.145-.214.165-.189.184-.154.195-.136.2-.111.213-.087.209-.073.207-.053.2-.039.188-.029.179-.019.155-.024.4.015.358.053.325.082.286.117.256.14.223.164.2.189.164.2.141.219.121.227.093.237.071.242.059.242.034.242.024.237,0h.16l.151,0h.129l.126-.006.112-.01.1-.009.1-.01.087-.015.082-.015.077-.018.078-.025.073-.024.072-.03.078-.028.077-.04.078-.038.193-1.191-.14.083-.136.077-.14.059-.136.053-.131.043-.135.029-.131.025-.131.019-.131.01-.125,0h-.131l-.126,0L59,40.771l-.126-.014-.121-.015-.126-.018-.1-.02-.1-.034-.1-.043-.088-.054-.087-.058-.078-.071-.072-.073-.068-.083-.057-.082-.053-.092-.04-.088-.034-.092-.019-.092-.01-.092,0-.082.012-.063H60.89l.024-.3.073-.407.034-.369ZM59.7,38.65H57.935v0h0l.012-.068.02-.1.029-.1.034-.1.044-.087.044-.083.052-.078.059-.073.063-.068.062-.057.074-.054.071-.044.083-.038.082-.029.082-.02.087-.015.092-.005.087.01.082.015.078.02.077.028.073.039.073.043.064.049.057.057.048.068.048.073.034.083.034.092.019.1.01.107.006.116Z" transform="translate(-20.405 -13.241)" fill="#fff" fill-rule="evenodd"/>
          </g>
        </g>
      </g>
      <g id="pp" transform="translate(1012.678 2672)">
        <g id="Group_199" data-name="Group 199" transform="translate(0 0)" clip-path="url(#clip-path-3)">
          <path id="Rectangle_118" data-name="Rectangle 118" d="M4.182,0H75.819A4.181,4.181,0,0,1,80,4.181V45.82A4.18,4.18,0,0,1,75.82,50H4.18A4.18,4.18,0,0,1,0,45.82V4.182A4.182,4.182,0,0,1,4.182,0Z" transform="translate(0 0)" fill="#fff"/>
          <path id="Path_138" data-name="Path 138" d="M82.949,34.72a5.083,5.083,0,0,0-2.38-.425,10.454,10.454,0,0,0-1.612.127c-.4.06-.437.07-.683.123a.781.781,0,0,0-.585.618l-.162.669c-.092.427.151.409.259.377a6.807,6.807,0,0,1,.793-.236,5.874,5.874,0,0,1,1.249-.168,3.3,3.3,0,0,1,1.208.171.613.613,0,0,1,.4.6.456.456,0,0,1-.022.189c-.022.052-.065.1-.193.121-.76.045-1.306.114-1.964.21a6.14,6.14,0,0,0-1.69.464,2.63,2.63,0,0,0-1.145.905,2.465,2.465,0,0,0-.383,1.39,1.633,1.633,0,0,0,.543,1.262,2.044,2.044,0,0,0,1.405.482,3.75,3.75,0,0,0,.836-.078,4.165,4.165,0,0,0,.642-.219,3.325,3.325,0,0,0,.549-.3c.195-.129.329-.222.5-.335l.006.011-.049.215,0,0v0a.4.4,0,0,0,.355.5l0,0h1.237a.024.024,0,0,0,.02-.008.693.693,0,0,0,.57-.5l.973-4.2a2.5,2.5,0,0,0,.05-.344,2.8,2.8,0,0,0,.023-.321,1.4,1.4,0,0,0-.757-1.315m-2.357,5a3.552,3.552,0,0,1-.523.27,1.881,1.881,0,0,1-.694.151A1.549,1.549,0,0,1,78.617,40a.513.513,0,0,1-.259-.5,1.022,1.022,0,0,1,.192-.651,1.391,1.391,0,0,1,.569-.384,4.834,4.834,0,0,1,.877-.2c.3-.038.905-.108.982-.108s.128-.043.094.161c-.015.089-.189.8-.269,1.124a.633.633,0,0,1-.21.277" transform="translate(-27.542 -12.422)" fill="#a24632"/>
          <path id="Path_139" data-name="Path 139" d="M57.085,34.441a1.143,1.143,0,0,0-.836.51s-1.908,3.273-2.1,3.6c-.1.177-.205.065-.224,0s-.589-3.576-.589-3.576a.733.733,0,0,0-.728-.521l-1.189,0a.4.4,0,0,0-.4.507s.91,5.156,1.087,6.368c.089.67-.009.79-.009.79L50.92,44.175c-.173.277-.078.507.208.507h1.378a1.121,1.121,0,0,0,.835-.506l5.3-8.973s.508-.766.04-.76c-.319.005-1.6,0-1.6,0" transform="translate(-18.412 -12.474)" fill="#503d2c"/>
          <path id="Path_140" data-name="Path 140" d="M31.036,35.031a2.8,2.8,0,0,1-1.681.441h-.327a.4.4,0,0,1-.406-.509l.4-1.728a.677.677,0,0,1,.635-.506l.436,0a2.109,2.109,0,0,1,1.158.26.868.868,0,0,1,.382.793,1.436,1.436,0,0,1-.6,1.251m2.876-2.663a1.984,1.984,0,0,0-.731-.783,3.353,3.353,0,0,0-1.156-.427,9.7,9.7,0,0,0-1.572-.125l-2.78,0a.7.7,0,0,0-.639.507l-1.875,8.15a.4.4,0,0,0,.4.509H26.9a.681.681,0,0,0,.637-.509l.459-1.978a.68.68,0,0,1,.635-.506h.381a6.323,6.323,0,0,0,3.8-1,3.116,3.116,0,0,0,1.358-2.639,2.485,2.485,0,0,0-.254-1.2" transform="translate(-9.108 -11.24)" fill="#503d2c"/>
          <path id="Path_141" data-name="Path 141" d="M68.945,35.081a2.816,2.816,0,0,1-1.68.436h-.331a.4.4,0,0,1-.4-.507l.4-1.73a.681.681,0,0,1,.633-.5l.437,0a2.176,2.176,0,0,1,1.158.258.894.894,0,0,1,.387.795,1.465,1.465,0,0,1-.6,1.255m2.874-2.667a2.038,2.038,0,0,0-.733-.785,3.281,3.281,0,0,0-1.158-.425,9.192,9.192,0,0,0-1.566-.123H65.575a.7.7,0,0,0-.635.508l-1.873,8.151a.394.394,0,0,0,.4.507l1.337,0a.694.694,0,0,0,.64-.505l.452-1.977a.683.683,0,0,1,.64-.506h.38a6.3,6.3,0,0,0,3.8-1,3.137,3.137,0,0,0,1.357-2.642,2.569,2.569,0,0,0-.254-1.2" transform="translate(-22.838 -11.257)" fill="#a24632"/>
          <path id="Path_142" data-name="Path 142" d="M45.031,34.71a5.077,5.077,0,0,0-2.378-.425,10.541,10.541,0,0,0-1.613.126c-.4.061-.436.071-.683.124a.78.78,0,0,0-.584.618l-.163.668c-.093.429.152.411.261.377a7.115,7.115,0,0,1,.791-.234,5.8,5.8,0,0,1,1.25-.169,3.3,3.3,0,0,1,1.207.17.614.614,0,0,1,.4.605.428.428,0,0,1-.021.188c-.022.054-.065.1-.193.121-.76.046-1.3.115-1.964.211a6.133,6.133,0,0,0-1.69.464,2.634,2.634,0,0,0-1.145.906,2.445,2.445,0,0,0-.382,1.39,1.635,1.635,0,0,0,.543,1.262,2.043,2.043,0,0,0,1.4.482,3.76,3.76,0,0,0,.836-.078,4.16,4.16,0,0,0,.641-.219,3.377,3.377,0,0,0,.549-.3c.194-.129.33-.221.5-.335l.006.011-.049.214,0,.006v0a.393.393,0,0,0,.355.5l0,.005h.023v0l1.025,0h.19a.022.022,0,0,0,.019-.008.693.693,0,0,0,.57-.5l.973-4.2a2.367,2.367,0,0,0,.05-.344,2.542,2.542,0,0,0,.023-.32,1.4,1.4,0,0,0-.758-1.316m-2.355,5a3.406,3.406,0,0,1-.524.269,1.877,1.877,0,0,1-.695.151,1.554,1.554,0,0,1-.758-.146.516.516,0,0,1-.26-.5,1.011,1.011,0,0,1,.195-.651,1.367,1.367,0,0,1,.566-.384,4.913,4.913,0,0,1,.879-.2c.3-.039.9-.107.981-.108s.128-.043.094.161c-.015.089-.188.8-.269,1.124a.643.643,0,0,1-.21.277" transform="translate(-13.809 -12.418)" fill="#503d2c"/>
          <path id="Path_143" data-name="Path 143" d="M92.01,31.186H90.816a.684.684,0,0,0-.618.462c-.005.015-.016.029-.02.045,0,0-.024.11-.066.3L88.467,39.45c-.04.176-.067.292-.075.321l0,.005a.389.389,0,0,0,.351.492l.008.011h1.236a.687.687,0,0,0,.62-.466c0-.015.015-.027.019-.042l1.786-8.078h0a.4.4,0,0,0-.4-.505" transform="translate(-32.013 -11.296)" fill="#a24632"/>
          <path id="Path_144" data-name="Path 144" d="M96.441,32.824a1.061,1.061,0,0,1-.133.026.856.856,0,0,1-.129.011.4.4,0,0,1-.3-.107.483.483,0,0,1-.1-.343v-.689h-.148V31.54h.148v-.372h.217v.372h.45v.184h-.45v.591c0,.068,0,.121,0,.159a.275.275,0,0,0,.033.108.156.156,0,0,0,.07.068.337.337,0,0,0,.136.022.412.412,0,0,0,.112-.017.531.531,0,0,0,.084-.026h.011Z" transform="translate(-34.635 -11.289)" fill="#a24632"/>
          <path id="Path_145" data-name="Path 145" d="M99.21,33.027h-.219v-.739c0-.055,0-.109-.007-.161A.335.335,0,0,0,98.951,32a.171.171,0,0,0-.077-.075.32.32,0,0,0-.144-.026.391.391,0,0,0-.183.047,1.035,1.035,0,0,0-.183.115c0,.018,0,.038,0,.063s0,.047,0,.07v.83h-.217v-.739c0-.057,0-.112-.008-.163A.341.341,0,0,0,98.115,32a.177.177,0,0,0-.077-.076.337.337,0,0,0-.144-.025.393.393,0,0,0-.18.045,1.1,1.1,0,0,0-.179.111v.969h-.218v-1.3h.218v.144a.969.969,0,0,1,.2-.131.494.494,0,0,1,.216-.048.42.42,0,0,1,.224.055.351.351,0,0,1,.138.155,1.061,1.061,0,0,1,.24-.161.569.569,0,0,1,.233-.049.379.379,0,0,1,.316.129.578.578,0,0,1,.1.361Z" transform="translate(-35.248 -11.48)" fill="#a24632"/>
        </g>
      </g>
      <g id="masestro" transform="translate(913.119 2672)">
        <g id="Group_200" data-name="Group 200" transform="translate(0 0)" clip-path="url(#clip-path-4)">
          <rect id="Rectangle_120" data-name="Rectangle 120" width="80.001" height="50" rx="8" transform="translate(0 0)" fill="#fff"/>
          <path id="Path_146" data-name="Path 146" d="M69.493,45.4l.742-.019.73-.057.718-.09.707-.127.7-.16.684-.194.665-.226.656-.26.637-.288.619-.316.6-.345.581-.376.566-.4.543-.425.524-.453.5-.476.471-.5.453-.524.43-.542.4-.561.372-.585.344-.6.32-.618.288-.637L83,35.96l.226-.665.194-.684.161-.694.127-.712.09-.718.056-.732.02-.74-.02-.735-.056-.727-.09-.712-.127-.708-.161-.689-.194-.679L83,26.1l-.254-.651-.288-.632-.32-.619-.344-.6-.372-.585-.4-.561-.43-.543-.453-.519-.471-.5-.5-.472-.524-.453-.543-.425-.566-.4-.581-.372-.6-.344-.619-.321-.637-.288-.656-.255-.665-.226-.684-.193-.7-.16-.707-.128-.718-.089-.73-.056-.742-.019-.741.019-.732.056-.717.089-.709.128-.7.16-.68.193-.67.226-.651.255-.637.288-.619.321-.6.344-.584.372-.562.4-.543.425-.519.453-.5.472-.476.5-.453.519-.424.543-.4.561-.373.585-.344.6-.317.619-.283.632-.26.651-.227.666-.189.679-.16.689-.128.708-.09.712-.057.727-.018.735.018.74.057.732.09.718.128.712.16.694.189.684.227.665.26.656.283.637.317.618.344.6.373.585.4.561.424.542.453.524.476.5.5.476.519.453.543.425.562.4.584.376.6.345.619.316.637.288.651.26.67.226.68.194.7.16.709.127.717.09.732.057Z" transform="translate(-19.971 -6.043)" fill="#a24632"/>
          <path id="Path_147" data-name="Path 147" d="M39.618,45.4l.741-.019.732-.057.717-.09.708-.127.7-.16.681-.194.67-.226.651-.26.638-.288.617-.316.6-.345.586-.376.561-.4.543-.425.52-.453.5-.476.473-.5.453-.524.424-.542.4-.561.372-.585.345-.6.316-.618.288-.637.256-.656.226-.665.189-.684.16-.694.127-.712.09-.718.056-.732.019-.74-.019-.735-.056-.727-.09-.712-.127-.708-.16-.689-.189-.679L53.1,26.1l-.256-.651-.288-.632-.316-.619-.345-.6-.372-.585-.4-.561-.424-.543-.453-.519-.473-.5-.5-.472-.52-.453-.543-.425-.561-.4-.586-.372-.6-.344-.617-.321-.638-.288-.651-.255-.67-.226-.681-.193-.7-.16-.708-.128-.717-.089-.732-.056-.741-.019-.741.019-.731.056-.718.089-.707.128-.7.16-.684.193-.665.226-.656.255-.637.288-.619.321-.6.344-.58.372-.567.4-.542.425-.524.453-.494.472-.476.5-.453.519-.429.543-.4.561-.372.585-.344.6-.321.619-.288.632-.254.651-.226.666-.193.679-.161.689-.127.708-.09.712-.057.727-.018.735.018.74.057.732.09.718.127.712.161.694.193.684.226.665.254.656.288.637.321.618.344.6.372.585.4.561.429.542.453.524.476.5.494.476.524.453.542.425.567.4.58.376.6.345.619.316.637.288.656.26.665.226.684.194.7.16.707.127.718.09.731.057Z" transform="translate(-9.14 -6.043)" fill="#503d2c"/>
          <path id="Path_148" data-name="Path 148" d="M59.941,24.8h7.281V24H60.644Z" transform="translate(-21.71 -8.693)" fill="#a24632"/>
          <path id="Path_149" data-name="Path 149" d="M58.15,27.47h8.423v-.8H58.66Z" transform="translate(-21.061 -9.66)" fill="#a24632"/>
          <path id="Path_150" data-name="Path 150" d="M56.81,30.175h9.277v-.8H57.2Z" transform="translate(-20.576 -10.638)" fill="#a24632"/>
          <path id="Path_151" data-name="Path 151" d="M55.939,32.84h9.833v-.8H56.184Z" transform="translate(-20.26 -11.605)" fill="#a24632"/>
          <path id="Path_152" data-name="Path 152" d="M55.369,35.508h10.2v-.8H55.515Z" transform="translate(-20.054 -12.57)" fill="#a24632"/>
          <path id="Path_153" data-name="Path 153" d="M55.21,40.679H65.482v-.8H55.14Z" transform="translate(-19.971 -14.443)" fill="#a24632"/>
          <path id="Path_154" data-name="Path 154" d="M55.552,43.5H65.578v-.8H55.405Z" transform="translate(-20.067 -15.464)" fill="#a24632"/>
          <path id="Path_155" data-name="Path 155" d="M56.258,45.785H65.8v-.8H56.012Z" transform="translate(-20.287 -16.292)" fill="#a24632"/>
          <path id="Path_156" data-name="Path 156" d="M57.316,48.566h8.815v-.8h-9.2Z" transform="translate(-20.619 -17.3)" fill="#a24632"/>
          <path id="Path_157" data-name="Path 157" d="M58.837,51.385h7.79v-.8H58.3Z" transform="translate(-21.115 -18.321)" fill="#a24632"/>
          <path id="Path_158" data-name="Path 158" d="M60.754,54.092H67.19v-.8H60.051Z" transform="translate(-21.75 -19.301)" fill="#a24632"/>
          <path id="Path_159" data-name="Path 159" d="M96.487,52.663l.043-.128.07-.118.091-.1.1-.085.117-.066.128-.043.137-.014.141.014.132.043.118.066.1.085.085.1.066.118.043.128h-.146l-.029-.09-.051-.1-.066-.085-.08-.066-.1-.051-.108-.034-.112-.01-.114.01-.11.034-.094.051-.084.066-.067.085-.051.1-.029.09Z" transform="translate(-34.946 -18.872)" fill="#a24632"/>
          <path id="Path_160" data-name="Path 160" d="M97.183,52.883v-.17h.269l.061,0,.051.005.048.015.037.018.029.024.023.028.015.033.005.043H97.6l-.005-.024-.01-.019-.014-.019-.018-.014-.024-.01-.023,0-.024,0h-.175v.094Z" transform="translate(-35.198 -19.092)" fill="#a24632"/>
          <path id="Path_161" data-name="Path 161" d="M96.472,53.1l.01-.119v0h.142l0,.023-.011.1Z" transform="translate(-34.941 -19.189)" fill="#a24632"/>
          <path id="Path_162" data-name="Path 162" d="M97.183,53.1V52.98h.122v.1h.2l.027,0,.024-.01.015-.01.014-.018.01-.024V52.98h.123l-.005.042-.01.038-.013.027-.014.015Z" transform="translate(-35.198 -19.189)" fill="#a24632"/>
          <path id="Path_163" data-name="Path 163" d="M98.432,53.1l-.009-.1,0-.023h.146v0l.014.119Z" transform="translate(-35.646 -19.189)" fill="#a24632"/>
          <path id="Path_164" data-name="Path 164" d="M96.47,53.172l0,.023.014.142.043.133.07.113.09.1.1.08.117.062.128.037.136.015.141-.015.133-.037.117-.062.1-.08.084-.1.066-.113.043-.133.014-.142v-.023h-.147V53.2l-.009.123-.034.113-.05.1-.067.085-.08.071-.094.052-.108.033-.113.01-.113-.01-.11-.033-.094-.052-.084-.071-.067-.085-.052-.1-.033-.113-.011-.123v-.023Z" transform="translate(-34.938 -19.258)" fill="#a24632"/>
          <path id="Path_165" data-name="Path 165" d="M97.183,53.172v.292h.122v-.24h.123l.146.24H97.7l-.175-.24.042-.006.043-.005.034-.013.028-.018.01-.01Z" transform="translate(-35.198 -19.258)" fill="#a24632"/>
          <path id="Path_166" data-name="Path 166" d="M69.54,36.308l-.094,0-.094-.01-.085-.015-.084-.008-.085-.015-.085-.014-.089-.013-.1-.014-.1-.011-.1-.009-.118-.01-.128-.005h-.142l-.156.005-.175.01-.188.014-.138.02-.128.027-.117.038-.1.043-.094.051-.085.057-.071.066-.055.066-.043.077-.028.08-.015.08V36.9l.019.09.033.09.051.089.066.09.137.123.159.1.189.085.2.071.212.07.222.071.226.08.217.1.2.113.193.137.17.175.142.207.108.254.071.3.024.358-.024.425-.052.316-.085.283-.108.255L69.082,41l-.159.2-.175.17-.193.146-.207.128-.217.1-.226.084-.232.071-.232.052-.231.038-.227.024-.216.015-.213.005H66.26L66,42.031l-.241-.005-.221,0-.2-.009L65.152,42l-.17-.013-.152-.02-.141-.019-.133-.024-.123-.024-.122-.033-.114-.033-.114-.033-.113-.043-.118-.043.293-1.481.066.014.08.023.1.024.109.028.127.024.142.034.151.027.16.029.17.024.179.024.184.019.193.018.194.01.2,0h.2l.2-.009.189-.033.155-.052.118-.075.094-.085.071-.1.052-.1.043-.1.027-.1.015-.108,0-.1-.024-.089-.038-.075-.052-.076-.066-.066L67.1,39.3l-.089-.057-.1-.051-.108-.052-.118-.052-.123-.047L66.44,39l-.131-.052-.133-.052-.136-.057-.133-.057-.131-.061-.133-.071-.128-.075-.122-.08-.114-.09-.107-.1-.1-.108-.09-.123-.08-.132-.066-.147-.056-.155-.038-.175-.024-.189,0-.207.015-.223.014-.136.018-.132.02-.127.027-.123.029-.119.033-.117.043-.108.043-.108.052-.1.052-.1.061-.09.067-.089.071-.085.075-.081.08-.075.089-.071.094-.066.1-.061L65.8,35l.114-.057.117-.047.128-.047.133-.038.14-.038.152-.033.156-.028.16-.024.17-.019.179-.014.189-.009.195-.01h.452l.227,0,.2.006.188.009.165.01.152.01.136.014.118.01.109.014.094.014.089.009.075.015.067.01.061.01.056.009.052.005Z" transform="translate(-23.127 -12.544)" fill="#fff"/>
          <path id="Path_167" data-name="Path 167" d="M69.54,36.308h0l-.094,0-.094-.01-.085-.015-.084-.008-.085-.015-.085-.014-.089-.013-.1-.014-.1-.011-.1-.009-.118-.01-.128-.005h-.142l-.156.005-.175.01-.188.014-.138.02-.128.027-.117.038-.1.043-.094.051-.085.057-.071.066-.055.066-.043.077-.028.08-.015.08V36.9l.019.09.033.09.051.089.066.09.137.123.159.1.189.085.2.071.212.07.222.071.226.08.217.1.2.113.193.137.17.175.142.207.108.254.071.3.024.358-.024.425-.052.316-.085.283-.108.255L69.082,41l-.159.2-.175.17-.193.146-.207.128-.217.1-.226.084-.232.071-.232.052-.231.038-.227.024-.216.015-.213.005H66.26L66,42.031l-.241-.005-.221,0-.2-.009L65.152,42l-.17-.013-.152-.02-.141-.019-.133-.024-.123-.024-.122-.033-.114-.033-.114-.033-.113-.043-.118-.043.293-1.481.066.014.08.023.1.024.109.028.127.024.142.034.151.027.16.029.17.024.179.024.184.019.193.018.194.01.2,0h.2l.2-.009.189-.033.155-.052.118-.075.094-.085.071-.1.052-.1.043-.1.027-.1.015-.108,0-.1-.024-.089-.038-.075-.052-.076-.066-.066L67.1,39.3l-.089-.057-.1-.051-.108-.052-.118-.052-.123-.047L66.44,39l-.131-.052-.133-.052-.136-.057-.133-.057-.131-.061-.133-.071-.128-.075-.122-.08-.114-.09-.107-.1-.1-.108-.09-.123-.08-.132-.066-.147-.056-.155-.038-.175-.024-.189,0-.207.015-.223.014-.136.018-.132.02-.127.027-.123.029-.119.033-.117.043-.108.043-.108.052-.1.052-.1.061-.09.067-.089.071-.085.075-.081.08-.075.089-.071.094-.066.1-.061L65.8,35l.114-.057.117-.047.128-.047.133-.038.14-.038.152-.033.156-.028.16-.024.17-.019.179-.014.189-.009.195-.01h.452l.227,0,.2.006.188.009.165.01.152.01.136.014.118.01.109.014.094.014.089.009.075.015.067.01.061.01.056.009.052.005-.34,1.529" transform="translate(-23.127 -12.544)" fill="none" stroke="#fff" strokeWidth="0.215"/>
          <path id="Path_168" data-name="Path 168" d="M74.463,32.309h1.9l-.292,1.652h1.165l-.264,1.505-1.193-.024L75.148,39.2l-.01.08v.071l.01.062.019.057.027.047.033.047.043.038.047.027.057.029.057.023.065.019.067.01.075.014.075,0,.08.005h.232l.132-.01.122-.018.1-.024.08-.023.062-.024.037-.019.015,0L76.384,40.9l-.047.029-.052.024-.052.024L76.18,41l-.052.018-.057.019-.055.018-.066.02-.068.018-.07.014-.08.014-.085.014-.089.015-.094.014-.108.015-.114.015h-.51l-.269-.02-.24-.027-.212-.039-.185-.052L73.67,41l-.132-.071-.108-.08-.09-.091-.071-.1-.052-.108-.033-.118-.019-.131-.005-.137.005-.151.014-.156.024-.17Z" transform="translate(-26.498 -11.702)" fill="#fff"/>
          <path id="Path_169" data-name="Path 169" d="M74.463,32.309h1.9l-.292,1.652h1.165l-.264,1.505-1.193-.024L75.148,39.2l-.01.08v.071l.01.062.019.057.027.047.033.047.043.038.047.027.057.029.057.023.065.019.067.01.075.014.075,0,.08.005h.232l.132-.01.122-.018.1-.024.08-.023.062-.024.037-.019.015,0L76.384,40.9l-.047.029-.052.024-.052.024L76.18,41l-.052.018-.057.019-.055.018-.066.02-.068.018-.07.014-.08.014-.085.014-.089.015-.094.014-.108.015-.114.015h-.51l-.269-.02-.24-.027-.212-.039-.185-.052L73.67,41l-.132-.071-.108-.08-.09-.091-.071-.1-.052-.108-.033-.118-.019-.131-.005-.137.005-.151.014-.156.024-.17,1.26-7.379" transform="translate(-26.498 -11.702)" fill="none" stroke="#fff" strokeWidth="0.215"/>
          <path id="Path_170" data-name="Path 170" d="M55.986,38.892l-.024.119,0,.118.009.127.029.123.037.128.057.127.066.122.08.118.09.114.1.109.108.094.119.089.127.075.132.062.142.047.14.033.171.024.17.023.175.02.174.009.18,0h.174l.185-.009.179-.015.184-.027.188-.034.189-.047.189-.061.189-.071.2-.084.193-.1.2-.114-.293,1.675-.109.057-.108.052-.1.043-.1.037-.1.037-.1.029-.108.024-.119.024L58.865,42l-.133.013-.145.014-.156.005-.17.009h-.189l-.207.006h-.391l-.17-.01-.165-.01-.169-.019-.175-.024-.17-.029-.17-.038-.169-.038-.165-.052-.165-.052-.161-.061-.161-.07-.155-.081-.152-.085-.141-.094-.142-.1-.132-.113-.128-.122-.123-.133-.108-.142-.1-.156-.094-.16-.085-.174-.076-.185-.066-.2-.052-.208-.043-.217-.027-.236L53.987,39v-.254l.008-.274.024-.284.014-.1.014-.114.02-.114.023-.122.023-.128.034-.132.038-.136.037-.142.048-.147.051-.142.062-.146.066-.146.076-.147.08-.146.089-.145.094-.142L54.9,35.9l.112-.137.123-.133.136-.122.142-.123.156-.112.165-.1.179-.1.188-.085.2-.08.212-.071.226-.057.241-.047.254-.033.265-.019.283-.01h.133l.131.01.137.01.136.014.136.019.143.028.136.033.137.038.136.042.138.052.131.056.128.067.123.075.122.08.112.1.114.1.1.109.1.118.09.132.08.137.077.151.065.16.057.175.041.185.039.2.023.206.01.223v.236l-.015.25-.023.264-.043.279-.057.293-.075.415h-4.9l.292-1.312h2.94l.014-.179v-.166l-.01-.155-.028-.142-.038-.127-.048-.118-.061-.1-.071-.094-.08-.085-.089-.07-.1-.057-.1-.048-.108-.038-.113-.029-.118-.013-.123-.006h-.132l-.122.019-.123.024-.113.038-.108.052-.1.061-.1.071-.09.08-.085.094-.075.1-.071.108-.066.118-.055.122-.048.133-.038.142-.034.146Z" transform="translate(-19.553 -12.557)" fill="#fff"/>
          <path id="Path_171" data-name="Path 171" d="M55.986,38.892h0l-.024.119,0,.118.009.127.029.123.037.128.057.127.066.122.08.118.09.114.1.109.108.094.119.089.127.075.132.062.142.047.14.033.171.024.17.023.175.02.174.009.18,0h.174l.185-.009.179-.015.184-.027.188-.034.189-.047.189-.061.189-.071.2-.084.193-.1.2-.114-.293,1.675-.109.057-.108.052-.1.043-.1.037-.1.037-.1.029-.108.024-.119.024L58.865,42l-.133.013-.145.014-.156.005-.17.009h-.189l-.207.006h-.391l-.17-.01-.165-.01-.169-.019-.175-.024-.17-.029-.17-.038-.169-.038-.165-.052-.165-.052-.161-.061-.161-.07-.155-.081-.152-.085-.141-.094-.142-.1-.132-.113-.128-.122-.123-.133-.108-.142-.1-.156-.094-.16-.085-.174-.076-.185-.066-.2-.052-.208-.043-.217-.027-.236L53.987,39v-.254l.008-.274.024-.284.014-.1.014-.114.02-.114.023-.122.023-.128.034-.132.038-.136.037-.142.048-.147.051-.142.062-.146.066-.146.076-.147.08-.146.089-.145.094-.142L54.9,35.9l.112-.137.123-.133.136-.122.142-.123.156-.112.165-.1.179-.1.188-.085.2-.08.212-.071.226-.057.241-.047.254-.033.265-.019.283-.01h.133l.131.01.137.01.136.014.136.019.143.028.136.033.137.038.136.042.138.052.131.056.128.067.123.075.122.08.112.1.114.1.1.109.1.118.09.132.08.137.077.151.065.16.057.175.041.185.039.2.023.206.01.223v.236l-.015.25-.023.264-.043.279-.057.293-.075.415h-4.9l.292-1.312h2.94l.014-.179v-.166l-.01-.155-.028-.142-.038-.127-.048-.118-.061-.1-.071-.094-.08-.085-.089-.07-.1-.057-.1-.048-.108-.038-.113-.029-.118-.013-.123-.006h-.132l-.122.019-.123.024-.113.038-.108.052-.1.061-.1.071-.09.08-.085.094-.075.1-.071.108-.066.118-.055.122-.048.133-.038.142-.034.146-.264,1.41" transform="translate(-19.553 -12.557)" fill="none" stroke="#fff" strokeWidth="0.215"/>
          <path id="Path_172" data-name="Path 172" d="M49.517,40.565l-.269,1.506h-1.7l.019-.142.018-.142.02-.127.018-.118.02-.1.014-.085.019-.057.019-.032-.089.1-.114.1-.127.1-.147.094-.155.09-.17.084-.18.076-.184.07-.193.062-.2.052-.2.037-.2.029-.2.014-.194.005-.188-.014-.184-.029-.24-.057-.212-.076-.193-.09-.17-.1-.151-.108-.129-.123-.113-.127-.094-.142-.08-.142-.066-.147-.052-.152-.042-.154L43.4,40.58l-.02-.156-.009-.151-.005-.147.02-.263.042-.251.062-.242.089-.226.108-.212.122-.2.147-.184.156-.175.175-.156.183-.136.2-.127.208-.11.216-.093.223-.077.226-.055.231-.043h.01l.033,0,.052-.006.07-.01.081-.009.094-.01.1-.014.112-.009.114-.01.114-.015.117-.01.114-.009.1-.01.1,0,.09,0H47.4l.085,0h.08l.075,0h.151l.066.005h.061l.053,0h.047l.038,0h.052l.015-.047.033-.114.024-.133v-.117l-.01-.085-.015-.08-.024-.075-.033-.071-.038-.066-.047-.061-.047-.057-.057-.057-.062-.047-.061-.038-.071-.038-.07-.033-.075-.024-.081-.019-.08-.013-.081-.01-.192-.005-.2.005-.213,0-.216.013-.217.015-.217.018-.217.024-.212.024-.2.033-.193.028-.175.034-.165.038-.147.038-.123.038-.1.038-.07.042.485-1.6.142-.066.151-.061.151-.052.16-.042.166-.033.17-.028.179-.024.184-.019.189-.009.193-.01.2-.005h.641l.227.005.236,0,.193.019.2.028.212.052.212.061.212.08.213.1.2.114.189.132.174.151.156.165.132.184.1.2.075.223.043.24.005.254-.038.279Z" transform="translate(-15.707 -12.578)" fill="#fff"/>
          <path id="Path_173" data-name="Path 173" d="M49.517,40.565l-.269,1.506h-1.7l.019-.142.018-.142.02-.127.018-.118.02-.1.014-.085.019-.057.019-.032-.089.1-.114.1-.127.1-.147.094-.155.09-.17.084-.18.076-.184.07-.193.062-.2.052-.2.037-.2.029-.2.014-.194.005-.188-.014-.184-.029-.24-.057-.212-.076-.193-.09-.17-.1-.151-.108-.129-.123-.113-.127-.094-.142-.08-.142-.066-.147-.052-.152-.042-.154L43.4,40.58l-.02-.156-.009-.151-.005-.147.02-.263.042-.251.062-.242.089-.226.108-.212.122-.2.147-.184.156-.175.175-.156.183-.136.2-.127.208-.11.216-.093.223-.077.226-.055.231-.043h.01l.033,0,.052-.006.07-.01.081-.009.094-.01.1-.014.112-.009.114-.01.114-.015.117-.01.114-.009.1-.01.1,0,.09,0H47.4l.085,0h.08l.075,0h.151l.066.005h.061l.053,0h.047l.038,0h.052l.015-.047.033-.114.024-.133v-.117l-.01-.085-.015-.08-.024-.075-.033-.071-.038-.066-.047-.061-.047-.057-.057-.057-.062-.047-.061-.038-.071-.038-.07-.033-.075-.024-.081-.019-.08-.013-.081-.01-.192-.005-.2.005-.213,0-.216.013-.217.015-.217.018-.217.024-.212.024-.2.033-.193.028-.175.034-.165.038-.147.038-.123.038-.1.038-.07.042.485-1.6.142-.066.151-.061.151-.052.16-.042.166-.033.17-.028.179-.024.184-.019.189-.009.193-.01.2-.005h.641l.227.005.236,0,.193.019.2.028.212.052.212.061.212.08.213.1.2.114.189.132.174.151.156.165.132.184.1.2.075.223.043.24.005.254-.038.279-.7,3.544" transform="translate(-15.707 -12.578)" fill="none" stroke="#fff" strokeWidth="0.215"/>
          <path id="Path_174" data-name="Path 174" d="M49.084,41.031l0-.038-.028-.029L49,40.941l-.061-.014-.08-.01-.085-.005h-.2l-.108.01-.114.014-.108.014-.109.019-.1.018-.1.018-.084.024-.076.024-.043.009-.057.019-.07.024-.077.033-.08.034-.09.043-.089.051-.089.053-.089.065L47,41.456l-.081.075-.07.086-.067.089-.047.1-.037.108-.024.113-.009.232.033.179.057.142.084.1.1.071.108.047.118.024.114.005.208-.005.184-.019.174-.033.156-.041.142-.048.128-.057.113-.066.1-.071.089-.071.077-.08.066-.076.055-.08.048-.08.038-.077.029-.075.023-.071.024-.1.023-.108.024-.114.024-.118.018-.113.019-.1.018-.1Z" transform="translate(-16.903 -14.818)" fill="#503d2c"/>
          <path id="Path_175" data-name="Path 175" d="M29.633,41.195H27.788l1.552-8.886h3.209l.316,5.29,2.185-5.29h3.332l-1.557,8.886H34.98l1.165-6.654h-.071l-2.746,6.654H31.261l-.019-.279-.043-.741-.061-1.048-.07-1.2L31,36.711l-.061-1.07-.043-.774-.018-.326H30.8Z" transform="translate(-10.064 -11.702)" fill="#fff"/>
          <path id="Path_176" data-name="Path 176" d="M29.633,41.195H27.788l1.552-8.886h3.209l.316,5.29,2.185-5.29h3.332l-1.557,8.886H34.98l1.165-6.654h-.071l-2.746,6.654H31.261l-.019-.279-.043-.741-.061-1.048-.07-1.2L31,36.711l-.061-1.07-.043-.774-.018-.326H30.8l-1.165,6.654" transform="translate(-10.064 -11.702)" fill="none" stroke="#fff" strokeWidth="0.215"/>
          <path id="Path_177" data-name="Path 177" d="M79.014,42.077h1.92l.656-3.836.028-.151.033-.146.038-.146.047-.137.052-.136.066-.128.08-.122.09-.117.109-.1.122-.094.147-.085.16-.076.189-.061.212-.047.236-.028.264-.019h.024l.029.005.038,0h.037l.034.005.027,0,.019,0h.01l.005-.027.019-.081.024-.123.037-.155.047-.174.052-.189.062-.189L84,35.546l.052-.133.061-.128.061-.127.066-.118.057-.1.047-.08.033-.052.01-.018h-.01l-.024-.01-.033,0-.048-.009-.047-.01-.057,0-.051-.01h-.047l-.208.014-.189.023-.174.038-.161.042-.151.056-.136.062-.132.075-.118.081-.119.09-.108.1-.1.1-.1.113-.1.118-.094.128-.1.132-.1.137.221-1.212-1.92-.024Z" transform="translate(-28.618 -12.584)" fill="#fff"/>
          <path id="Path_178" data-name="Path 178" d="M79.014,42.077h1.92l.656-3.836.028-.151.033-.146.038-.146.047-.137.052-.136.066-.128.08-.122.09-.117.109-.1.122-.094.147-.085.16-.076.189-.061.212-.047.236-.028.264-.019h.024l.029.005.038,0h.037l.034.005.027,0,.019,0h.01l.005-.027.019-.081.024-.123.037-.155.047-.174.052-.189.062-.189L84,35.546l.052-.133.061-.128.061-.127.066-.118.057-.1.047-.08.033-.052.01-.018h-.01l-.024-.01-.033,0-.048-.009-.047-.01-.057,0-.051-.01h-.047l-.208.014-.189.023-.174.038-.161.042-.151.056-.136.062-.132.075-.118.081-.119.09-.108.1-.1.1-.1.113-.1.118-.094.128-.1.132-.1.137.221-1.212-1.92-.024-1.264,7.258" transform="translate(-28.618 -12.584)" fill="none" stroke="#fff" strokeWidth="0.215"/>
          <path id="Path_179" data-name="Path 179" d="M89.83,34.744l.212,0,.208.014.2.018.2.029.188.038.184.047.175.052.173.061.166.07.156.076.156.081.142.089.142.1.131.1.124.109.117.118.114.122.1.132.1.133.089.142.085.145.071.156.07.156.057.165.052.165.042.175.038.179.029.184.018.184.01.194,0,.2,0,.2-.014.241-.029.232-.033.222-.043.216-.047.208-.062.2-.066.194-.07.183-.086.175-.084.17-.1.16-.1.151-.108.147-.119.136-.122.128-.127.122-.133.113-.136.109-.146.1-.147.09-.156.084-.161.077-.159.07-.17.061-.169.056-.18.048-.179.038-.179.033-.188.024-.189.018-.194.01-.194,0-.193,0-.194-.01-.184-.018-.184-.029-.179-.033-.18-.038-.169-.047-.165-.056-.166-.061-.156-.071-.151-.075-.147-.085-.141-.089-.133-.1-.132-.1-.122-.113-.114-.118-.114-.128-.1-.132-.1-.142-.085-.146-.085-.156-.07-.161-.067-.165-.055-.175-.052-.184-.043-.188-.033-.2-.024-.2-.014-.208,0-.217,0-.221.014-.226.024-.218.033-.212.043-.2.047-.2.056-.193.061-.184.071-.179.075-.175.084-.165.1-.157.1-.155.1-.141.112-.142.119-.128.123-.127.131-.117.137-.108.142-.1.147-.094.154-.085.161-.085.165-.071.165-.066.175-.056.179-.053.185-.041.188-.038.193-.024.2-.023.2-.01Z" transform="translate(-31.126 -12.584)" fill="#fff"/>
          <path id="Path_180" data-name="Path 180" d="M89.83,34.744h0l.212,0,.208.014.2.018.2.029.188.038.184.047.175.052.173.061.166.07.156.076.156.081.142.089.142.1.131.1.124.109.117.118.114.122.1.132.1.133.089.142.085.145.071.156.07.156.057.165.052.165.042.175.038.179.029.184.018.184.01.194,0,.2,0,.2-.014.241-.029.232-.033.222-.043.216-.047.208-.062.2-.066.194-.07.183-.086.175-.084.17-.1.16-.1.151-.108.147-.119.136-.122.128-.127.122-.133.113-.136.109-.146.1-.147.09-.156.084-.161.077-.159.07-.17.061-.169.056-.18.048-.179.038-.179.033-.188.024-.189.018-.194.01-.194,0-.193,0-.194-.01-.184-.018-.184-.029-.179-.033-.18-.038-.169-.047-.165-.056-.166-.061-.156-.071-.151-.075-.147-.085-.141-.089-.133-.1-.132-.1-.122-.113-.114-.118-.114-.128-.1-.132-.1-.142-.085-.146-.085-.156-.07-.161-.067-.165-.055-.175-.052-.184-.043-.188-.033-.2-.024-.2-.014-.208,0-.217,0-.221.014-.226.024-.218.033-.212.043-.2.047-.2.056-.193.061-.184.071-.179.075-.175.084-.165.1-.157.1-.155.1-.141.112-.142.119-.128.123-.127.131-.117.137-.108.142-.1.147-.094.154-.085.161-.085.165-.071.165-.066.175-.056.179-.053.185-.041.188-.038.193-.024.2-.023.2-.01.2,0" transform="translate(-31.126 -12.584)" fill="none" stroke="#fff" strokeWidth="0.215"/>
          <path id="Path_181" data-name="Path 181" d="M96.465,45.67h.557v.071H96.8V46.2h-.122v-.462h-.217Z" transform="translate(-34.939 -16.541)" fill="#fff"/>
          <path id="Path_182" data-name="Path 182" d="M96.465,45.67h.557v.071H96.8V46.2h-.122v-.462h-.217V45.67" transform="translate(-34.939 -16.541)" fill="none" stroke="#fff" strokeWidth="0.215"/>
          <path id="Path_183" data-name="Path 183" d="M97.449,45.67h.17l.2.411.193-.411h.17V46.2h-.122v-.409l-.193.409h-.1l-.195-.409V46.2h-.122Z" transform="translate(-35.295 -16.541)" fill="#fff"/>
          <path id="Path_184" data-name="Path 184" d="M97.449,45.67h.17l.2.411.193-.411h.17V46.2h-.122v-.409l-.193.409h-.1l-.195-.409V46.2h-.122V45.67" transform="translate(-35.295 -16.541)" fill="none" stroke="#fff" strokeWidth="0.215"/>
          <path id="Path_185" data-name="Path 185" d="M89.657,39.122l-.028.265-.015.245v.222l.015.208.028.189.041.165.053.151.065.136.08.117.09.1.1.085.109.067.117.051.133.038.136.018.147.01.161,0,.156-.018.146-.034.141-.051.133-.066.127-.085.117-.1.114-.118.1-.131.094-.152.089-.17.076-.184.071-.2.061-.221.048-.241.042-.259.023-.2.015-.193v-.189l-.015-.179-.023-.166-.038-.16-.052-.147-.061-.136-.075-.123-.086-.1-.1-.094-.108-.075-.123-.062-.132-.038-.141-.023h-.157l-.193.014-.179.033-.166.056-.156.071-.142.094-.131.1-.118.117-.1.133-.1.14-.084.152-.077.151-.061.16-.056.161-.047.161-.033.161Z" transform="translate(-32.457 -13.495)" fill="#a24632"/>
        </g>
      </g>
      <g id="Powered_by_Stripe_-_black" data-name="Powered by Stripe - black" transform="translate(913 2742)">
        <path id="Path_186" data-name="Path 186" d="M175.2,0H4.476A4.476,4.476,0,0,0,0,4.476V36.324A4.476,4.476,0,0,0,4.476,40.8H175.2A4.8,4.8,0,0,0,180,36V4.8A4.8,4.8,0,0,0,175.2,0Zm3.6,36a3.6,3.6,0,0,1-3.6,3.6H4.476A3.288,3.288,0,0,1,1.2,36.324V4.476A3.288,3.288,0,0,1,4.476,1.2H175.2a3.6,3.6,0,0,1,3.6,3.6Z" fill="#533c29"/>
        <path id="Path_187" data-name="Path 187" d="M17.631,11.24H12.77V23.4h2.17V18.7h2.69c2.713,0,4.409-1.311,4.409-3.73S20.344,11.24,17.631,11.24Zm-.113,5.652H14.94v-3.73h2.611c1.56,0,2.385.667,2.385,1.865s-.859,1.809-2.385,1.809Z" transform="translate(1.665 2.61)" fill="#533c29"/>
        <path id="Path_188" data-name="Path 188" d="M25.6,14a4.262,4.262,0,0,0-4.3,4.623,4.307,4.307,0,1,0,8.58,0A4.25,4.25,0,0,0,25.6,14Zm0,7.54c-1.379,0-2.261-1.13-2.261-2.916s.859-2.916,2.261-2.916,2.261,1.13,2.261,2.916-.893,2.905-2.261,2.905Z" transform="translate(2.776 3.112)" fill="#533c29"/>
        <path id="Path_189" data-name="Path 189" d="M37.766,20.031l-1.594-5.9H34.5l-1.583,5.9-1.605-5.9H29.22L31.9,23.038h1.763L35.29,17.2l1.628,5.833h1.763l2.679-8.908H39.348Z" transform="translate(6.001 3.123)" fill="#533c29"/>
        <path id="Path_190" data-name="Path 190" d="M44.491,14a4.329,4.329,0,0,0-4.239,4.623,4.284,4.284,0,0,0,4.329,4.623,3.923,3.923,0,0,0,3.855-2.464l-1.684-.7a2.012,2.012,0,0,1-2.069,1.424,2.4,2.4,0,0,1-2.453-2.453h6.24v-.678C48.492,15.933,47.113,14,44.491,14Zm-2.182,3.538A2.17,2.17,0,0,1,44.491,15.7a1.763,1.763,0,0,1,1.91,1.831Z" transform="translate(8.191 3.109)" fill="#533c29"/>
        <path id="Path_191" data-name="Path 191" d="M50.925,15.461V14.138H48.89v8.9h2.035V18.366a2.136,2.136,0,0,1,2.261-2.261,5.29,5.29,0,0,1,.746,0V14.07h-.577a2.589,2.589,0,0,0-2.43,1.39Z" transform="translate(9.882 3.111)" fill="#533c29"/>
        <path id="Path_192" data-name="Path 192" d="M57.971,14a4.329,4.329,0,0,0-4.239,4.623,4.284,4.284,0,0,0,4.329,4.623,3.923,3.923,0,0,0,3.809-2.464l-1.741-.667a2.012,2.012,0,0,1-2.069,1.424,2.4,2.4,0,0,1-2.374-2.453H61.95v-.678C61.95,15.933,60.548,14,57.971,14Zm-2.182,3.538a2.17,2.17,0,0,1,2.17-1.831,1.763,1.763,0,0,1,1.91,1.831Z" transform="translate(10.934 3.109)" fill="#533c29"/>
        <path id="Path_193" data-name="Path 193" d="M68.307,15.49a3.222,3.222,0,0,0-2.555-1.13c-2.5,0-3.923,2.091-3.923,4.623s1.424,4.623,3.923,4.623a3.188,3.188,0,0,0,2.555-1.13V23.4h2.035V11.24H68.307Zm0,3.787a2.261,2.261,0,0,1-2.261,2.577c-1.481,0-2.261-1.13-2.261-2.849s.791-2.849,2.261-2.849a2.3,2.3,0,0,1,2.261,2.589Z" transform="translate(12.593 2.619)" fill="#533c29"/>
        <path id="Path_194" data-name="Path 194" d="M79.846,14.36a3.256,3.256,0,0,0-2.611,1.13V11.24H75.2V23.4h2.035v-.938A3.233,3.233,0,0,0,79.8,23.6c2.487,0,3.911-2.1,3.911-4.623S82.333,14.36,79.846,14.36Zm-.35,7.461a2.261,2.261,0,0,1-2.261-2.577v-.531c0-1.673.95-2.589,2.261-2.589,1.47,0,2.261,1.13,2.261,2.849S80.909,21.821,79.5,21.821Z" transform="translate(15.317 2.619)" fill="#533c29"/>
        <path id="Path_195" data-name="Path 195" d="M87.429,20.381,85.248,14.13H83.1l3.278,8.58-.339.837a1.13,1.13,0,0,1-1.289.893,4.657,4.657,0,0,1-.678,0v1.707a5.223,5.223,0,0,0,.825.057,3.018,3.018,0,0,0,3.143-2.261L91.7,14.2H89.566Z" transform="translate(16.929 3.277)" fill="#533c29"/>
        <path id="Path_196" data-name="Path 196" d="M125.608,12.43a3.391,3.391,0,0,0-2.408.983l-.158-.78h-2.7v14.6l3.075-.667V23.033a3.391,3.391,0,0,0,2.182.791c2.193,0,4.205-1.8,4.205-5.776C129.8,14.408,127.767,12.43,125.608,12.43Zm-.735,8.625a1.82,1.82,0,0,1-1.447-.588V15.821a1.854,1.854,0,0,1,1.47-.622c1.13,0,1.9,1.277,1.9,2.916s-.78,2.939-1.922,2.939Z" transform="translate(26.132 3.028)" fill="#533c29"/>
        <path id="Path_197" data-name="Path 197" d="M134.279,12.43c-2.962,0-4.759,2.555-4.759,5.776,0,3.809,2.125,5.742,5.155,5.742a6.918,6.918,0,0,0,3.391-.825V20.58a6.545,6.545,0,0,1-3.052.7c-1.221,0-2.261-.441-2.419-1.922h6.082v-1.13C138.778,14.985,137.241,12.43,134.279,12.43Zm-1.662,4.6c0-1.424.87-2.023,1.639-2.023s1.583.6,1.583,2.023Z" transform="translate(27.329 2.856)" fill="#533c29"/>
        <path id="Path_198" data-name="Path 198" d="M113.325,13.483l-.192-.927H110.51V23.532h3.029V16.094a2.114,2.114,0,0,1,2.317-.656V12.556a2.035,2.035,0,0,0-2.532.927Z" transform="translate(22.352 2.835)" fill="#533c29"/>
        <path id="Path_199" data-name="Path 199" d="M99.819,15.855c0-.5.407-.69,1.051-.69a6.669,6.669,0,0,1,3.052.814V13.007a7.913,7.913,0,0,0-3.052-.577c-2.5,0-4.16,1.334-4.16,3.572,0,3.5,4.68,2.939,4.68,4.442,0,.588-.5.78-1.13.78a7.664,7.664,0,0,1-3.391-1.017v3.041a8.342,8.342,0,0,0,3.391.723c2.555,0,4.318-1.3,4.318-3.572C104.521,16.6,99.819,17.279,99.819,15.855Z" transform="translate(19.669 2.857)" fill="#533c29"/>
        <path id="Path_200" data-name="Path 200" d="M107.626,10.24l-3,.656V20.99a3.131,3.131,0,0,0,3.188,3.244,4.7,4.7,0,0,0,2.159-.418V21.273c-.4.17-2.329.746-2.329-1.13V15.621h2.329V12.976h-2.329Z" transform="translate(21.163 2.456)" fill="#533c29"/>
        <path id="Path_201" data-name="Path 201" d="M116.25,12.056l3.086-.644V8.97l-3.086.644Z" transform="translate(23.4 1.848)" fill="#533c29"/>
        <rect id="Rectangle_122" data-name="Rectangle 122" width="3.086" height="10.897" transform="translate(139.65 15.479)" fill="#533c29"/>
      </g>
      <text id="Payments-2" data-name="Payments" transform="translate(913 2565)" fill="#503d2c" fontSize="24" fontFamily="SegoeUI, Segoe UI"><tspan x="0" y="0">PAYMENTS</tspan></text>
    </g>
    <g id="Delivery" transform="translate(0 -82)">
      <g id="Group_203" data-name="Group 203" transform="translate(980 2871)">
        <g id="Group_202" data-name="Group 202" transform="translate(0 0)" clip-path="url(#clip-path-5)">
          <path id="Path_202" data-name="Path 202" d="M87.223,0,81.587,7.657H112.3c1.553,0,1.532.59.773,1.618-.77,1.044-2.06,2.859-2.845,3.918-.4.539-1.119,1.519,1.268,1.519H124.06s2.025-2.756,3.722-5.059c2.309-3.133.2-9.653-8.054-9.653Z" transform="translate(-56.201 0)" fill="#503d2c"/>
          <path id="Path_203" data-name="Path 203" d="M74.258,46.118l11.32-15.381H99.625c1.553,0,1.532.59.774,1.618-.77,1.044-2.082,2.839-2.867,3.9-.4.538-1.119,1.519,1.268,1.519h18.819c-1.565,2.144-6.642,8.344-15.757,8.344Z" transform="translate(-51.152 -21.173)" fill="#503d2c"/>
          <path id="Path_204" data-name="Path 204" d="M233.173,53.348l-6.139,8.346H210.842s6.135-8.344,6.141-8.344Z" transform="translate(-145.238 -36.749)" fill="#503d2c"/>
          <path id="Path_205" data-name="Path 205" d="M274.655,14.712H235.048L245.879,0h16.188l-6.208,8.436h7.226L269.3,0h16.186Z" transform="translate(-161.912 0)" fill="#503d2c"/>
          <path id="Path_206" data-name="Path 206" d="M308.438,53.353,302.3,61.7H286.109s6.136-8.344,6.141-8.344Z" transform="translate(-197.085 -36.752)" fill="#503d2c"/>
          <path id="Path_207" data-name="Path 207" d="M0,63.928H23.855l-1.3,1.773H0Z" transform="translate(0 -44.036)" fill="#503d2c"/>
          <path id="Path_208" data-name="Path 208" d="M0,53.354H26.279l-1.306,1.77H0Z" transform="translate(0 -36.752)" fill="#503d2c"/>
          <path id="Path_209" data-name="Path 209" d="M0,74.508H21.433l-1.3,1.762H0Z" transform="translate(0 -51.324)" fill="#503d2c"/>
          <path id="Path_210" data-name="Path 210" d="M514.318,65.7H490.555l1.3-1.773h22.46Z" transform="translate(-337.917 -44.037)" fill="#503d2c"/>
          <path id="Path_211" data-name="Path 211" d="M508.97,76.27l-26.179,0,1.3-1.764H508.97Z" transform="translate(-332.569 -51.324)" fill="#503d2c"/>
          <path id="Path_212" data-name="Path 212" d="M499.642,53.354h20.039v1.771l-21.341,0Z" transform="translate(-343.28 -36.752)" fill="#503d2c"/>
          <path id="Path_213" data-name="Path 213" d="M407.238,0,396.409,14.712H379.255S390.087,0,390.092,0Z" transform="translate(-261.249 0)" fill="#503d2c"/>
          <path id="Path_214" data-name="Path 214" d="M369.148,53.353s-1.183,1.617-1.758,2.394c-2.034,2.748-.235,5.95,6.4,5.95h26l6.141-8.344Z" transform="translate(-252.531 -36.752)" fill="#503d2c"/>
        </g>
      </g>
      <text id="Delivery-2" data-name="Delivery" transform="translate(980 2845)" fill="#503d2c" fontSize="24" fontFamily="SegoeUI, Segoe UI"><tspan x="0" y="0">DELIVERY</tspan></text>
    </g>
  </g>
</svg>
